<?xml version="1.0" encoding="UTF-8"?>
<svg id="Layer_1" xmlns="http://www.w3.org/2000/svg" version="1.1" viewBox="0 0 1024 204">
  <!-- Generator: Adobe Illustrator 30.1.0, SVG Export Plug-In . SVG Version: 2.1.1 Build 136)  -->
  <defs>
    <style>
      .st0 {
        fill: #775bfc;
      }

      .st1 {
        fill: #42c3fe;
      }

      .st2 {
        fill: #656ffe;
      }

      .st3 {
        fill: #38a0fe;
      }

      .st4 {
        fill: #488dfe;
      }

      .st5 {
        fill: #5281fd;
      }

      .st6 {
        fill: #6a69fe;
      }

      .st7 {
        fill: #3e99fd;
      }

      .st8 {
        fill: #577dfd;
      }

      .st9 {
        fill: #34a4fe;
      }

      .st10 {
        fill: #887afe;
      }

      .st11 {
        fill: #5084fe;
      }

      .st12 {
        fill: #37a1fe;
      }

      .st13 {
        fill: #54b2fe;
      }

      .st14 {
        fill: #3f97fe;
      }

      .st15 {
        fill: #3b9ffd;
      }

      .st16 {
        fill: #7f6afb;
      }

      .st17 {
        fill: #5880fc;
      }

      .st18 {
        fill: #756ef8;
      }

      .st19 {
        fill: #3c3fca;
      }

      .st20 {
        fill: #5c78fd;
      }

      .st21 {
        fill: #fff;
        stroke: #fff;
        stroke-miterlimit: 10;
      }

      .st22 {
        fill: #5383fd;
      }

      .st23 {
        fill: #4294fd;
      }

      .st24 {
        fill: #5b7afe;
      }

      .st25 {
        fill: #696cfd;
      }

      .st26 {
        fill: #32abfd;
      }

      .st27 {
        fill: #abacde;
      }

      .st28 {
        fill: #745efe;
      }

      .st29 {
        fill: #577efe;
      }

      .st30 {
        fill: #28b4fe;
      }

      .st31 {
        fill: #47aefe;
      }

      .st32 {
        fill: #788dfe;
      }

      .st33 {
        fill: #7164fe;
      }

      .st34 {
        fill: #7063fe;
      }

      .st35 {
        fill: #2352d2;
      }

      .st36 {
        fill: #2ab0fe;
      }

      .st37 {
        fill: #7d6df4;
      }

      .st38 {
        fill: #6074fe;
      }

      .st39 {
        fill: #5eabfe;
      }

      .st40 {
        fill: #3048ce;
      }

      .st41 {
        fill: #6074fd;
      }

      .st42 {
        fill: #2fb8fe;
      }

      .st43 {
        fill: #6f66fd;
      }

      .st44 {
        fill: #6371fe;
      }

      .st45 {
        fill: #26b7fc;
      }

      .st46 {
        fill: #4590fd;
      }

      .st47 {
        fill: #4393fe;
      }

      .st48 {
        fill: #2bb0fe;
      }

      .st49 {
        fill: #4194fd;
      }

      .st50 {
        fill: #686dfd;
      }

      .st51 {
        fill: #2dacfe;
      }

      .st52 {
        fill: #2faafe;
      }

      .st53 {
        fill: #3a9dfe;
      }

      .st54 {
        fill: #4f86fc;
      }

      .st55 {
        fill: #699cfe;
      }

      .st56 {
        fill: #38c4fb;
      }

      .st57 {
        fill: #4c44c1;
      }

      .st58 {
        fill: #37d9fe;
      }

      .st59 {
        fill: #755cfe;
      }

      .st60 {
        fill: #29b3fc;
      }

      .st61 {
        fill: #3da8fe;
      }

      .st62 {
        fill: #3d98fd;
      }

      .st63 {
        fill: #3b9bfe;
      }

      .st64 {
        fill: #6570fd;
      }

      .st65 {
        fill: #5f75fe;
      }

      .st66 {
        fill: #468dfd;
      }

      .st67 {
        fill: #745ffc;
      }

      .st68 {
        fill: #7360fe;
      }

      .st69 {
        fill: #4d88fe;
      }

      .st70 {
        fill: #31a7fe;
      }

      .st71 {
        fill: #6c67fd;
      }

      .st72 {
        fill: #498cfe;
      }

      .st73 {
        fill: #4b8dfc;
      }

      .st74 {
        fill: #6c68fe;
      }

      .st75 {
        fill: #776cf5;
      }
    </style>
  </defs>
  <g>
    <g>
      <path class="st21" d="M88,68c.84,11.4.82,23.69,0,35,.2,1.61.53,3.27,1,5l17.28-13.74,24.59-19.46c6.55-5.18,12.96-12.59,20.48-15.95,9.64-2.59,20.53.12,30.27-.83,1.3-.13,1.8,2.88,1.03,3.14s-1.27,1.72-2.26,2.28c-8.42,4.7-28.62,22.41-37.49,29.34l-14.42,11.28c2.25,4.33,6.13,6.83,9.73,9.78l46.59,38.24c.93.77,1.77,1.91,2.01,2.59.3.84-.65,3.26-1.84,3.27l-29.89.06-43.31-35.69c-1.69-1.39-2.48-3.18-4.32-3.39-4.03-.46-10.83,7.55-12.05,8.33-4.39,2.84-7.49,5.27-7.09,10.81.46,6.49,0,13.06-.43,19.95l-24.89-.02.12-99.76c8.37.04,16.8-1.12,24.19.41,3.77,1.4.72,6.8.72,9.37Z"/>
      <path class="st21" d="M89,103c-.28.87-.62.86-1,0v-35c.38-.12.99.36.99,1.06v33.94Z"/>
      <path class="st21" d="M89,108c-2-.34-.95-3.54-1-5h1v5Z"/>
    </g>
    <g>
      <path class="st21" d="M645.72,140.14l-4.99,9.69c-1.32,2.56-2,7.51-5.83,7.91s-20.86.88-23.46-.74c-.64-.4-.38-1.45.11-2.4l10.29-19.83,27.69-50.16c2.92-5.29,5.61-10.56,8.03-15.93,7.88-17.51,33.35-10.73,36.57-4.8l48.62,89.28c.81,1.48,1.62,4.66-.79,4.67l-23.73.18c-1.98-3.23-3.5-5.92-5.21-9.15l-35.55-66.87c-4.82,6.37-7.11,13.11-10.73,19.75l-21,38.4Z"/>
      <g>
        <path class="st21" d="M545,118c-3.29-.87-6.7-.87-10,0h-1c-2.26-.85-4.73-.85-7,0l-22.87-.29c-1.36-.02-4.96-1.14-4.98,1.32l-.38,39.53c-7.84-.83-14.57-.59-21.86-.48-1.58.02-2.87-1.56-2.87-3.32l-.03-89.74c0-2.58.2-4.71.89-7.02l24.1-.36.08,39.41,33.95-.33c3.33-.03,23.43-.28,24.81-.08,2.23.32,4.87-1.29,7.56.59,2.38-7.53,1.16-14.84,1.37-22.47l.47-16.55c8.12-.36,15.41-.43,23.62.05l-.03,99.46-23.75.15-.11-40.88c-2.21-.25-3.81,1.05-5.93,1.04l-16.05-.04Z"/>
        <path class="st21" d="M545,118h-10c2.65-1.73,7.35-1.73,10,0Z"/>
        <path class="st21" d="M534,118h-7c1.6-1.71,5.4-1.71,7,0Z"/>
      </g>
      <g>
        <path class="st21" d="M410,80c-.97,1.87-.77,4.09,0,6v1c-.36,1.71-.69,3.38-1,5,.32,3.56.65,7.23,1,11v2c-.87,3.6-.87,7.4,0,11,0,1.63.25,3.39,0,5-.94,1.93-.55,4.02,0,6-1.17,3.31.26,6.62,0,10-.29,6.25-.62,12.58-1,19-.41,1.09-1.21,2.05-2.97,2.05l-21.04-.08v-77.93s-44.37-.24-44.37-.24c-1.16-6.47-.46-11.86-.64-17.87-.06-2.04,1.83-3.93,4.14-3.93l110.21.07c3.26,3.3.73,19.91.44,20.23-.85.97-2.17,1.64-3.83,1.64l-40.95.05Z"/>
        <path class="st21" d="M409,156l.04-17.95c0-.69.55-1.16.96-1.05-.48,6.34,1.24,13.05-1,19Z"/>
        <path class="st21" d="M410,116c-1.73-3-1.73-8,0-11v11Z"/>
        <path class="st21" d="M410,103c-.8.07-1.01-.9-1.01-1.94v-9.06c.3-.87.63-.86,1.01,0v11Z"/>
        <path class="st21" d="M410,127c-1.68-1.25-1.68-4.75,0-6-.29,1.84.62,4.26,0,6Z"/>
        <path class="st21" d="M410,86c-1.56-.87-1.85-5.49,0-6v6Z"/>
        <path class="st21" d="M410,92h-1c0-1.66-.65-4.05,1-5v5Z"/>
      </g>
    </g>
    <g>
      <g>
        <path class="st52" d="M871.65,72.1c1.08.01,1.98.64,2.69,1.88,4.23-.39,6.49,1.05,6.79,4.33-.05.92-.39,1-1,.28-1.25,2.88-4.79,2.77-7.54,2.41-2.19.62-7.3,1.99-9.45,1.97-.32,0-.63-.43-.95-.98-.79-1.04-1.93-1.71-3.12-2.02-1.92,4.31-4.64,6.3-8.15,5.98-4.21.51-13.56.58-13.18-5.11.19-2.9,2.83-9.22,5.43-10.09,1-5.17,4.03-5.12,6.65-.91,2.82.86,5.56,2.11,8.24,3.76,5.32-3.1,9.84-3.59,13.58-1.5Z"/>
        <path class="st60" d="M870,60c2.57.11,4.51,2.53,4.98,5,2.51,3.59-.71,6.43-3.35,3.24.02.98-.29,1.8-1.12,2.4-5.65-1.39-11.37-1.73-17.15-1.01-6.19-1.21-10.87-2.17-5.15-8.04,4.73-4.86,16.27-4.69,21.79-1.59Z"/>
        <path class="st67" d="M818.97,152c.56,1,.26,2.39-.88,4.19-1.07.94-1.84,1.9-4.06,1.86l-13.86-.22c-1.64-.03-3.15-.8-3.32-2.29,0-.08,4.02-10.53,5.47-9.71.56.3.24,1.32.24,1.26.33-3.19,1.23-4.66,3.7-1.72,4.87-4.21,14.15,1.06,12.71,6.62Z"/>
        <path class="st48" d="M870,60c-3.31,2.75-.5-2.82-11.25-1.4-4.98.66-9.08,1.78-12.61,5.95,2.37,3.52,10.73,3.77,15.35,2.35.89-.27,10.26,2.87,10.15,1.33,2.9.63,2.85,3.18.02,3.87-1.09.98-2.64.82-4.29.64-3.14-.33-5.59,2.11-8.28,2.77-3.31.82-7.27-4.44-9.41-3.48-.96.43.17,2.33-1.61,2.95.42-3.37.11-6.53-2.63-6.74-.68.87-1.77,1.97-2.25,2.5-1.21-.23-.92-.83-.16-1.74,1.35-5.87,6.02-10.52,12.52-11.53,5.18-.81,10.82-1.07,14.47,2.52Z"/>
        <path class="st28" d="M916.67,145.16l.14.92c.77,1.99,1.84,3.63,3.2,4.92.17.29-.11.8,0,1.12-.62,3.8-5.58,2.06-8.28.68-3.44,2.07-7.77,4.27-11.72,2.2-.91-2.3-2.72-4.55-3-7-3.45-6.19,13.57-6.79,16.88-5.84,1.4.4,2.91,1.4,2.78,3Z"/>
        <path class="st38" d="M903.07,118.06c-.66-.27-.67-.62-.07-1.06,1.83,2.54,4,5.63,3.8,8.8-1.65.44-3.59.72-5.83.86-2.42,1.53-4.58,1.91-6.49,1.12-3.23,2.45-5.72,2.84-7.45,1.18-1.18-1.68-2.63-3.84-2.77-6.01l.05-2.38c4.23-1.68,8.43-3.37,12.61-5.09,1.91,1.07,3.96,1.93,6.15,2.58Z"/>
        <path class="st34" d="M913.95,138.99c.66,3.28,3.87,1.72,2.72,6.17-2.87-2.61-17.8-.03-17.93.11-.82.87-1.52,1.66-1.74,2.73-.84-.74-1.46-2-2-3-.42-2.03-.08-3.31,1.01-3.84-4.19-7.38,16.61-7.92,17.94-2.17Z"/>
        <path class="st20" d="M837.06,120.87c-1.38,3.05-2.21,6.44-4.47,9-5.68.63-12.39-2.21-17.45-4.98-.15,2.67-1.12,2.52-1.93,0,.4-3.16,2.34-5.3,3.78-7.89,3.46.07,6.94.41,10.44,1.04,2.77,2.14,5.98,3.08,9.63,2.83Z"/>
        <path class="st23" d="M850.37,93.8c-.45-2.87,0-3.03,1.76-.8-1.85,4.4-4.62,8.46-6.14,13-4.6-.23-9.03-1.09-13.29-2.59l-.39-2.22c-3.48-1.43-3.58-7.69-.25-9.29,5.53.32,10.24,1.81,14.13,4.46.78-2.25,1.65-3.54,4.18-2.56Z"/>
        <path class="st12" d="M843.17,70.75c-2.46,2.7-5.83,8.66-2.38,13.29,4.62-.49,9.89.48,14.79-.63,1.49-.34,1.62-3.93,3.49-3.44-1.06,3.02-2.53,5.96-4.17,8.72-2.27,2.71-3.32,2.78-6.44,1.42-2.16,1.34-12.29-2.72-12.28-3.76,0-.28.6-.96,1.08-1.03-1.86.82-3.01.44-2.12-1.3-.7-.19,7.1-16.53,7.87-15.02l.16,1.74Z"/>
        <path class="st15" d="M881.72,77.87c2.58,1.88,3.14,5.27,4.28,8.13.5,1.81-.18,1.82-1.2.18.08.78.12,1.95-.41,2.15-4.68,1.76-12.15,3.01-17.14,2.61-2.42-1.38-3.79-4.37-4.2-7.08l2.64-1.84,11.79-.17c.55-1.55,1.44-2.63,2.65-3.24l1-.28c-.29-.62-.09-.77.59-.45Z"/>
        <path class="st33" d="M825.07,143.22l-1.07,3.78c-1.47,1.61-2.81,3.28-4,5-.3.87-.64.86-1.03,0-2.29-2.43-5.43-7.63-9.82-5.98-1.3.49-1.95,2.16-3.22,1.55-1.2-.58-1.66-1.56-2.78-2.69-.09,1.6.57,3.1-.78,4.2-1.05-1.47-.36-2.42-.06-3.22,1.04-1.72.61-4.66,2.68-5.84,3.37-1.74,11.25-.26,13.59,3.08,3.32-1.43,5.48-1.38,6.48.14Z"/>
        <path class="st8" d="M821.94,110.93c2.25,2.17,4.94,3.28,8.05,3.34l4.46,2.11c1.44-.96,2.73-1.04,3.86-.23,1.22-1.19,1.71-.69.92.86-.71.86-1.71,2.83-2.18,3.86-2.62,3.43-6.84,1.63-10.03-.74s-10.78,1.14-10.03-3.13c1.17-2.1,2.48-5.3,4.15-7.06,1.56-1.14,2.03-.54.8,1Z"/>
        <path class="st74" d="M826,142c-.34.18-.82.85-.93,1.22-3.75.4-1.95,1.76-6.59,1.79-1.66.01-2.29-2.52-3.68-2.78-3.59-.66-6.87-.45-9.8-2.23.84-.48.71-2.74,2.03-3.04,1.36-2.53,4.29-3.17,8.79-1.92l8.3,1.7c3.88-1.08,4.51.67,1.87,5.26Z"/>
        <path class="st24" d="M903.07,118.06c-.08,1.36-2.31,1.17-3.21,1.2-.73.03-1.86-2.48-2.6-1.98-9.31,6.33-1.08-1.79-12.99,5.67-2.54-1.6-2.95-4.3-4-6.69.46-1.79.99-1.81,1.58-.06,1.07-1.33,2.82-2.01,5.27-2.02,7.81-5.49,13.13-4.19,15.96,3.88Z"/>
        <path class="st7" d="M884.8,86.18c.92.61,1.65,1.61,2.2,3.03,1.12.59,1.88,1.63,1.1,2.65l-.7,1.11c-5.1.22-9.64,1.4-13.64,3.53-.13,3.12-1.48,3.2-3.68,1.19-1.66-1.8-2.15-4.61-2.83-6.75.53-.52.79-1.24,1.19-2.09.43-.9,1.7.69,2.63.48l13.73-3.14Z"/>
        <path class="st54" d="M831.89,106.58c.78-.38,1.59-.75,2.47-.79,2.47-.11,8.41.17,9.64,2.08-.48,2.89-3.1,7.13-4.76,9.14-.32-.09-.97-.47-.92-.86-1.5-2.01-4.09-2.95-7.76-2.8l-4.58-1.58c-1.87.81-3.22.53-4.04-.84l-.8-1c.95-1,.76-4.05,2.69-4.5,2.64-1.51,7.6-3.17,8.06,1.14Z"/>
        <path class="st72" d="M891.91,97.34c2.03.77,1.57,3.73,2.23,5.07-.09.59-.22,1.15-.46,1.66-.23.47-.48.86-.8.92-5.11,1.09-12.84,2.02-17.8,1.74-1.73-2.4-3.77-4.72-4.08-7.73,2.53-1.24,3.24-.75,2.85,2.06,5.46-.9,10.75-2.99,15.86-6.27l2.2,2.55Z"/>
        <path class="st29" d="M903,117l.07,1.06c-2-.05-1.76-3.02-2.92-4.04-5.65-5-9.42,4.42-18.31,2.19-3.5-1.91-2.22-4.1,3.83-6.57l6.4-1.56c-.19-1.79,1.45-2.48,4.92-2.08,2.72,3.25,3.52,7.54,6,11Z"/>
        <path class="st71" d="M913.95,138.99c-2.35-2.87-17.55-1.28-17.83-.47s-.18,1.89-.12,2.64c-1.56,1.78-3.29-1.52-2.05-3.09-2.11-7.07,10.3-8.67,15.04-7.07,2.83,1.39,4.95,4.83,4.95,7.99Z"/>
        <path class="st0" d="M920,152.12c.55.88,1.64,1.64,1.79,2.53.21,1.24-.85,2.03-1.79,2.35-5.59.88-11.39.83-16.99-.01-1.47-.47-2.37-.38-3.01-1.99,3.99-.17,7.28-1.54,10.65-4.29,1.64-1.33,1.87,2.47,9.35,1.41Z"/>
        <path class="st50" d="M829.09,135.98c-.57,1.64-1.55,5.2-3.09,6.02-.14-1.37.42-2.1.94-4.34-3.13,2.12-4.82-.19-7.25-.44-2.9-.3-5.62-.02-8.54-.75-1.31-.33-2.94,1.44-4.11.5-1.07-2.2,1.29-4,1.97-5.96,1.57-1.64,3.77-1.68,6.61-.13,3.21,1.16,6.68,2.02,10.4,2.59,3.03-.34,4.06.5,3.08,2.51Z"/>
        <path class="st64" d="M815.14,124.89c1.58.35,2.81,1.39,3.69,3.12,2.78.05,5.49.75,8.13,2.1,2.24-.67,3.88-.49,4.93.56.74,2.51-2.25,3.72-2.81,5.31-1.19-1.4-3.04-.84-5.03-1.04-5.49-.55-10.18-2.8-15.06-3.94.75-2.17,3.3-4.19,4.22-6.11h1.93Z"/>
        <path class="st46" d="M891.91,97.34c-.42,1.83-2.78-1.34-3.43-.73-5.02,4.67-12.06,7.21-13.67,6.28-.61-.35-.5-1.45-.96-1.83-2.24-1.58-.9-3.07,1.09-4.59,5.19-1.75,9.58-3.29,13.17-4.61-.31-.9-.68-1.79-1.1-2.65-.46-.27-.42-.58.06-.92,2.4,2.23,4.44,5.74,4.86,9.05Z"/>
        <path class="st62" d="M850.37,93.8c-3.97,3.66-.93,4.07-2.78,4.38-.59.1-1.88.41-2.6-.28-6.27-5.99-13.46-.59-12.93-5.99-.94.28-.96-.35-.07-1.91.11-.61.7-1.5,1-2,2.32.79,2.71,1.46.26,2.12,1.13-3.16,4.39-3.24,9.79-.26,7.34-.18,9.78,1.13,7.32,3.94Z"/>
        <path class="st2" d="M906.8,125.8c.95,1.05,2.91,2.32,2.2,4.2l-1.29.51c-4.13-1.48-8.76-.34-13.89,3.41-2.19-.25-3.47.11-3.83,1.08-1.51-1.03-1.98-4.64-2.97-6.04,2.43-.68,4.58-2.13,7.19-3.11.78-.29,2.21,1.12,3.09.52,3.19-2.15,6.35-1.83,9.48-.57Z"/>
        <path class="st25" d="M909,130c-.11.3.07.68,0,1-2.64,2.08-6.64,1.93-10.18,1.52-1.95,1.62-3.34,3.71-4.86,5.55-.22,2.09-1.06,1.59-1.96-.16-1.47-.09-1.23-2.38-2-2.91-.16-.64-.72-1.22-.66-2.25,10.31-.88,14.47-9.66,19.66-2.75Z"/>
        <path class="st53" d="M854.91,88.69c-.97,1.64-2.02,2.52-2.77,4.31-.49.17-1.48.35-1.76.8.63-.3.16-1.53-.66-1.54-5.14-.09-9.91-1.62-14.65-2.99-.59-.17-1.24,1.94-1.64,1.65-.91-.66-.27-1.2-.42-2.92-.08-1.59,1.27-3,2.14-3.97l.55,1.44c-1.45-3.81,7.16,2.87,7.25,2.87,2.81.27,5.28-1.11,8.07.64,1.28.8,2.93.6,3.9-.29Z"/>
        <path class="st69" d="M897,106c.36,1.41-.82,1.66-1.53,1.96-1.07.45-2.72-.39-3.39.12-3.25,1.31-6.58,1.94-9.98,1.89-3.24.61-5.27-.08-6.11-2.07-.32-.37-.63-.76-.91-1.17,3.57.1,6.75-2.29,10.58-3.05,2.95-.59,5.98.11,8.48-1.27,1.75.65,2,2.57,2.86,3.59Z"/>
        <path class="st70" d="M880.13,78.6c.01,1.13.42,4.88-1.03,5.09-5.72.59-10.94.41-16.05.16-.39-.42-.53-1.43-.86-1.86.54.21,1.01,0,1.21-.5.13-.34.25-1.66.75-1.61l5.21.55c2.21-1.79,3.52-1.52,5.84-1.17,1.47.23,3.33-1.79,4.93-.66Z"/>
        <path class="st73" d="M832.07,91.91c-2.04,2.81.77,6.12.25,9.29,2.42,1.85,2.6,4.19-.43,5.39-8.12-2.31-6.7,2.2-8.06-1.14,2.06-5.01,4.29-11.54,8.17-15.44-.14.53.31,1.45.07,1.91Z"/>
        <path class="st41" d="M832.6,129.87l-.7.8c-7.32,4.38-7.64-2.6-15.12-.19-.63-2.24-.82-4.01-1.63-5.59,3.01-2.61,6.56,2.47,14.03,2.79,1.32.68,2.44,1.41,3.43,2.19Z"/>
        <path class="st49" d="M888.1,91.86c2.83,4.09-13.09,3.03-14.25,9.2-.89-.74-2-1.25-2.85-2.06-.39-.37-.56-.93-.92-1.31.47.07,1.78.58,1.84-.19.05-.71-.66-1.66-.66-2.66,1.97.54,3.58-1.71,5.38-2.18,3.84-.99,7.82-.58,11.46-.8Z"/>
        <path class="st26" d="M881.72,77.87c.52.83-.27,1.49-.59.45-2.36-4.61-9.26.87-9.48-6.21-.04-1.29.11-2.58-.02-3.87,1.02-.26,2.07-.46,3.02-1.27.44-.37.52-1.22.33-1.97,3.07,3.74,5.8,8.11,6.73,12.87Z"/>
        <path class="st66" d="M846,106c-.31.92-1.31,1.42-2,1.87-4.18.13-8.7,1.53-12.11-1.29.09-1.79.14-3.62.43-5.39,3.2,3.18,12.23.26,13.68,4.81Z"/>
        <path class="st22" d="M892.08,108.08c-2.54,1.93-5.55,2.84-8.13,5.08-.63.54-2.27-.59-2.63.56-.31,1-.05,1.67.53,2.48-.4.69-1.06.51-1.58.06-1.19-2.72-4.35-4.95-4.27-8.36l16.09.18Z"/>
        <path class="st57" d="M920,157c-5.24,1.75-11.75,1.66-16.99-.01h16.99Z"/>
        <path class="st18" d="M893.96,138.07c.34,1.22.93,2.43,2.05,3.09.12,1.37.44,3.11-1.01,3.84-1.2-2.21-2.46-4.68-3-7.09l1.96.16Z"/>
        <path class="st75" d="M824,147c-.56,1.97-2.06,3.35-3,5-.3.53-.64.51-1,0l2.25-6.02c.73.29,1.16.85,1.75,1.02Z"/>
        <path class="st16" d="M920,151c-2.6.17-2.89-2.83-3.2-4.92,1.93.85,2.19,3.21,3.2,4.92Z"/>
        <path class="st37" d="M821,152c-.88,1.54-1.49,2.94-2.91,4.19-.09-1.46.06-2.96.88-4.19h1.03s1,0,1,0Z"/>
        <path class="st31" d="M887.05,88.29l-.06.92c-1.25-.53-2.1-1.66-2.2-3.03l1.2-.18c.28.7,1,1.51,1.05,2.29Z"/>
        <path class="st5" d="M838.32,116.15c-.89.79-2.85,2.76-4.37,2.08-2.14-.94-3.91-2.37-6.72-2.33s-6.2-2.16-5.28-4.97l4.43-1.63c-.15,1.82,11.6,3.68,11.97,2.01,1.06,2.15.13,3.38-.03,4.84Z"/>
      </g>
      <g>
        <path class="st45" d="M958,61c-1.17,1.64-1.54,1.34-1.26-.58.03-.21,1.09,3.74-.74,3.58.39,7.48-7.47,7.2-13.6,6.64-2.02-.27-3.11-2.48-3.25-6.64-.45-1.22-.77-2.58-.98-4.06.16-.94,1.52-1.8,2.79-1.8l14.08-.02c2,0,2.81,1.47,2.96,2.88Z"/>
        <path class="st17" d="M958.89,129c-2.99,1.27-3.9-1.81-.89-3-2.63.15-2.72-.03-.88-2.03l-2.07-1.33c.21-2.43-1.21-3.59-4.27-3.46-6.81,1.27-10.73-.46-11.77-5.17-.86-.44-.68-2.58.28-3.1.45-2.77,4.04-1.12,5.82.38,2.88-1.89,6.33-1.7,10.35.58.3-2.04,1.1-3.99,2.41-5.86l-1.97-2.36c.78-1.42,1.45-2.98,1.99-4.7-2.62-.02-2.58-2,.12-5.94-1.7-1.21-1.67-7.65,0-9-.6-.13-1.07-.28-1.09-.47-.23-2.44-.45-13.27.07-14.87.1-.3.51-.49,1.01-.66-1.65-.84-1.46-5.86,0-7,2.36,22.38.33,45.3.89,68Z"/>
        <path class="st68" d="M958,150c1.04,1,.44,3.47,0,5-.12.53.03,1.49-.63,1.79-.47.21-.97.12-1.37.21l-1.61-1.71c1.94-9.71-8.02-6.04-10.24.19-2.54,1.38-4.52,1.5-5.94.36l-.07-.9c-.6-.2-.63-.52-.14-.95.33-3.44.71-6.77,1.13-10-.02-3.87,2.25-4.83,6.78-2.9,4.5-1.14,8.44-.85,11.81.87.48,2.81.57,5.48.28,8.03Z"/>
        <path class="st59" d="M956,157c-2.93.62-17.52,2.62-17.8-1.15.98.32,1.44-.17,1.59-.71.25-.92-.02-2.1.53-3.21.99.75.98,1.9,2.84,2.51.34-3.51,2.12-4.38,4.78-6.06,1.72-1.09,4.67-1.83,7.34.33,1.85,1.5,1.48,5.99.71,8.29Z"/>
        <path class="st43" d="M958.89,139l.11,11c-.28.87-.62.86-1,0l-1.48-7.31c-2.03.06-3.65.07-5.61-.46-3.45,1.39-6.86,1.14-10.22-.74-.53.87-.87,1.81-1.56,2.5-.8-2-1.11-6.06.2-7.74l1.89-1.24s5.6,0,16.79-.02l.89,4Z"/>
        <path class="st44" d="M958,126c.04,1.07.1,2.19.89,3v10c-.01-1.19-1.68-2.49-.89-4-5.23-1-10.83-1.4-16.81-1.2-1.24-.52-1.97-1.79-2.19-3.8-.93-1.3-.67-3.86.25-5.28-.43-2.32.82-2.78,3.74-1.37,2.47,2.56,5.91,3.06,10.32,1.51,2.06-.19,3.62.2,4.69,1.14Z"/>
        <path class="st35" d="M938,76c.99,4.74.95,11.22,0,16,1.15,1.93.79,5.82,0,8,.79,2.09.92,5.94,0,8-.28.87-.62.86-1,0,0-16.07-1.5-32.46,1.17-48.06.63,5.24.71,10.85-.17,16.06Z"/>
        <path class="st40" d="M938,117c.95,4.33.93,10.55,0,15-.28.87-.62.86-1,0v-24h1c1.19,2.21.7,6.48,0,9Z"/>
        <path class="st19" d="M938,154l.14.95c-.49.33-1.15-.23-1.15-1.01v-21.94h1.01c1.06,6.7.77,14.84,0,22Z"/>
        <path class="st27" d="M958,155v-5h1c.02,1.73.24,3.77-1,5Z"/>
        <path class="st30" d="M956,64c1.6-.05,1.5,3.48,0,4,1.55.63,1.4,3.24-.38,3.31-.63,3.47-3.58,4.57-8.87,3.29-3.27,6.53-6.21,2.86-7.64-2.67-.88-2.33-.98-5.56.05-7.93,1.37.67.87,3.96,2.04,4.91,5.09-1.55,12.13.64,13.25-1.67l1.56-3.24Z"/>
        <path class="st58" d="M939.15,64c-.15,2.65.02,5.28-.05,7.93,1.93,2.41,1.89,3.76-.1,4.07-.28.87-.62.86-1,0,0-5.35-.18-10.72.17-16.06,1.34.74,1.05,2.83.98,4.06Z"/>
        <path class="st56" d="M958,61v7c-.32,2.66-1.24,2.54-2,0v-4l.23-4.06c.82.32,1.02,1.23,1.77,1.06Z"/>
        <path class="st47" d="M957.88,98.94c-.05,2.36.06,4.69-.02,7.06-.35,2.25-1.02,2.92-2,2.01-3.7-3.37-7.03-3.59-11.84-2.58-1.66-.62-3.33-1.1-5.02-1.43-.88-.55-.75-3.05,0-4-.76-1.48-.79-3.82.29-5.09.08-1.03.61-1.75,1.44-1.44,4.84,1.83,8.43,2.89,13.57,3.78,2.62,1.11,2.84,1.25,2.61,4.34-.02.32-3.22-3.46.98-2.64Z"/>
        <path class="st11" d="M939.29,110.9c-1.07.17-.95-2.18-.08-2.84.1-.77.31-1.91.88-2,1.67-.28,13.48-.28,14.34.1.8.35,1.24,1,1.43,1.85l2-2.01c-.08,2.46.33,4.97-.1,7.55-3.43.87-5.53-.28-8.03-2.1-1.19-.87-3.41,2.58-4.49,2.15-2.17-.86-3.68-3.12-5.95-2.7Z"/>
        <path class="st65" d="M957.12,123.97c.16.67.86,1.31.88,2.03-3.89.66-8.42,1.91-12.81,1.49-1.68-.24-3.38-4.32-5.94-2.77-1.07-.81-.95-3.53-.25-4.72,1.35-.99,3.18-1.07,5.5-.23,5.12-.69,9.72-.79,12.62,4.2Z"/>
        <path class="st24" d="M957.12,123.97c-2.69-.12-4.84-1.42-6.08-3-3.74.85-8.53,1.65-12.04-.96-.86-.29-.72-2.3,0-3-.86-.3-.72-2.31,0-3,4.08,5.79,11.94,1.57,16.53,4.42,1.75,1.09,1.23,4.07,1.58,5.54Z"/>
        <path class="st14" d="M941.93,92.02c4.43.06,8.82.5,13.18,1.32l.84,1.79c.43-1.65,1.11-2.37,2.04-2.13l-.12,5.94c-.98.8-.61,2.18-1.35,3.06,3.14-1.76-13.83-7.31-12.25-3.18-.41-2.62-2.35-4.03-4.99-3.91-1.09-.48-.91-2.09-.14-3.04-.25-2.57,2.39-2.14,2.78.15Z"/>
        <path class="st42" d="M958,68v16c-.6,2.62-1.51,2.52-2.22-.05-2.61-1.57-2.54-4.57,0-6.18-2.75-1.47-2.54-4.78-.15-6.45.14-1.1.38-2.2.38-3.31h2Z"/>
        <path class="st61" d="M958,84v9c-.94.31-.66,3.52-2.04,2.13-2.83-.73-2.87-2.36-.09-3.3-2.62-1.82-2.63-3.86,0-5.68-2.65-.43-2.61-1.34-.09-2.21l2.22.05Z"/>
        <path class="st55" d="M939.29,110.9l-.28,3.1v3c-.29.87-.63.86-1.01,0v-9c-.08-1.95.71-1.9,1.21.06l.08,2.84Z"/>
        <path class="st10" d="M939.33,136.26c-.48,2.57.05,5.18-.2,7.74-.32,3.36.82,7.03-1.13,10v-22c.05-1.72.68-1.82,1.14-.05,2.68.44,3.05,3.64.19,4.31Z"/>
        <path class="st6" d="M958,135c-2.13,3.14-5.38,2.74-8.93,2.35-3.34-.37-6.86.86-9.74-1.09.25-1.36-.61-2.9-.19-4.31-.79-.54-.83-1.24-.14-1.95,1.82,5.3,22.42-1.47,19,5Z"/>
        <path class="st32" d="M939,120l.25,4.72c.09,1.75-.41,3.51-.25,5.28.05.59.31,1.39.14,1.95l-1.14.05v-15h1v3Z"/>
        <path class="st1" d="M939.25,79.23c2.73.68,2.45,1.81-.19,2.73,2.76,2.84,2.81,4.79.13,5.85,2.5,1.67,3.05,2.96-.04,4.06-.08,1.74-.57,1.82-1.15.13v-16h1c2.86.25,2.95,2.29.25,3.23Z"/>
        <path class="st13" d="M939.29,94.91c-.09,1.7-.29,3.38-.29,5.09-.28.87-.62.86-1,0v-8l1.15-.13c-.01.99.2,2.05.14,3.04Z"/>
        <path class="st39" d="M939,104c2.93-.14,2.97,3.24.21,4.06l-1.21-.06v-8h1v4Z"/>
        <path class="st36" d="M955.77,77.77c-1.58,5.87-13.57,6.46-16.52,1.46l-.25-3.23.1-4.07c1.79,1.44,3.58,2.84,4.43,5.13,1.94-8.7,5.65-1.08,12.08-5.75.3,2.14.43,4.31.15,6.45Z"/>
        <path class="st4" d="M955.86,108.01l-16.65.06-.21-4.06c.95-.51.81-1.55,1.42-3.13,4.44,5.83,6.85-.54,12.47,3.07,1.02.66,2.72.07,2.91.89.32,1.4.15,2.36.06,3.18Z"/>
        <path class="st3" d="M955.87,86.16c.08,1.89.11,3.79,0,5.68-.4.88-1.04,1.52-1.94,1.35-4.5-.83-7.46-1.1-12-1.17l-2.78-.15.04-4.06c4.23-1.99,11.05-2.88,15.79-2.66.31.01.6.45.88,1Z"/>
        <path class="st63" d="M955.87,91.84l.09,3.3c-6.44-1.57-9.42.78-14.03-3.11,9.72-4.29,6.05-.65,13.94-.18Z"/>
        <path class="st51" d="M955.77,77.77c.27,2.05.28,4.13,0,6.18-.1.65-.23,1.17-.43,1.2-2.19.35-10.93,1.24-12.57.89-2.76-.59-3.17-1.22-3.72-4.08.08-.9.26-1.82.19-2.73,2.01.06,4.12-.33,5.42,2,4.02-.37,7.61-1.83,11.1-3.47Z"/>
        <path class="st9" d="M955.78,83.95l.09,2.21c-3.11,1.27-6.78.47-10.15,1.49-2.37.72-4.39,2.02-6.52.16.02-1.95-.3-3.9-.13-5.85,1.13,1.27,2.68,2.17,4.87,2.14l11.84-.16Z"/>
      </g>
    </g>
  </g>
  <g>
    <path class="st21" d="M325,92c-.41,2.4-.74,4.73-1,7,.31,6.49.65,13.16,1,20-.23,5.72-1.26,16.23-3.09,20.61-4.09,9.82-14.69,17.9-25.47,18.01l-61.31.63c-18,.18-32.17-10.43-32.83-29.7-.49-14.16-.5-27.86.01-42.19s10.57-27.88,26.14-27.94l67.55-.24c6.37-.02,13.34,3.11,18.02,6.57,6.99,5.16,9.55,12.99,10.15,21.13.18,2.38.83,4.19.83,6.13ZM227.88,91c-1.65,10.79-1.28,22.27.12,33,.65,4.98,1.81,11.9,9.16,11.88l52.45-.13c7.39-.02,9.61-6.88,9.69-12.65.15-10.6,2.29-25.67-1.19-36.95-1.31-4.27-4.49-5.53-8.12-6.29-1.49-.31-3.94-2.31-5,.13-.8-.1-1.67-1.01-3.02-1.01l-39.01-.05c-5.67,0-11.14,1.99-14.31,6.68-1.17,1.73-.54,3.82-.78,5.38Z"/>
    <path class="st21" d="M325,119c-.76.07-1.03-.92-1.03-1.95l.03-18.05c.28-.87.62-.86,1,0v20Z"/>
    <path class="st21" d="M325,99h-1c0-2.32-.82-5.4,1-7v7Z"/>
    <path class="st21" d="M228,124c-1.41-10.73-1.78-22.21-.12-33l.12,33Z"/>
    <path class="st21" d="M290,79.87c-1.65,0-3.35.34-5,.13,1.06-2.44,3.51-.44,5-.13Z"/>
  </g>
</svg>