<?xml version="1.0" encoding="UTF-8"?>
<svg id="Layer_1" xmlns="http://www.w3.org/2000/svg" version="1.1" xmlns:xlink="http://www.w3.org/1999/xlink" viewBox="0 0 256 256">
  <!-- Generator: Adobe Illustrator 30.1.0, SVG Export Plug-In . SVG Version: 2.1.1 Build 136)  -->
  <defs>
    <style>
      .st0 {
        fill: #4c26ac;
      }

      .st1 {
        fill: #7f36e8;
      }

      .st2 {
        fill: #834efc;
      }

      .st3 {
        fill: #6956fe;
      }

      .st4 {
        fill: #8e51fc;
      }

      .st5 {
        fill: #4223c2;
      }

      .st6 {
        fill: #22affd;
      }

      .st7 {
        fill: #0256cc;
      }

      .st8 {
        fill: #2831b4;
      }

      .st9 {
        fill: #3f19ae;
      }

      .st10 {
        fill: #503dd7;
      }

      .st11 {
        fill: #536bfd;
      }

      .st12 {
        fill: url(#linear-gradient2);
      }

      .st13 {
        fill: #2f38c0;
      }

      .st14 {
        fill: #6a66fd;
      }

      .st15 {
        fill: #3e2bcf;
      }

      .st16 {
        fill: #5869fd;
      }

      .st17 {
        fill: #7b49fe;
      }

      .st18 {
        fill: #4926af;
      }

      .st19 {
        fill: #0fa3fd;
      }

      .st20 {
        fill: #09adfd;
      }

      .st21 {
        fill: #8660fd;
      }

      .st22 {
        fill: #0f60dd;
      }

      .st23 {
        fill: #4c44c9;
      }

      .st24 {
        fill: #3e30bd;
      }

      .st25 {
        fill: #4222a1;
      }

      .st26 {
        fill: #3f41df;
      }

      .st27 {
        fill: #0b66d5;
      }

      .st28 {
        fill: #1077dc;
      }

      .st29 {
        fill: #097ed4;
      }

      .st30 {
        fill: #1753c7;
      }

      .st31 {
        fill: #3020c4;
      }

      .st32 {
        fill: #784cfd;
      }

      .st33 {
        fill: #03b7fd;
      }

      .st34 {
        fill: #552bc0;
      }

      .st35 {
        fill: #5247d1;
      }

      .st36 {
        fill: #7c52fc;
      }

      .st37 {
        fill: #4a24b1;
      }

      .st38 {
        fill: #15a3fd;
      }

      .st39 {
        fill: #2750be;
      }

      .st40 {
        fill: #116dd0;
      }

      .st41 {
        fill: #1e69ce;
      }

      .st42 {
        fill: #3b1597;
      }

      .st43 {
        fill: #19b7fd;
      }

      .st44 {
        fill: #3c38d2;
      }

      .st45 {
        fill: #077fe9;
      }

      .st46 {
        fill: #3614af;
      }

      .st47 {
        fill: #9b48fd;
      }

      .st48 {
        fill: #05b3fe;
      }

      .st49 {
        fill: #30159c;
      }

      .st50 {
        fill: #1578d8;
      }

      .st51 {
        fill: #2324c2;
      }

      .st52 {
        fill: #4733cc;
      }

      .st53 {
        fill: #2e33d1;
      }

      .st54 {
        fill: #1366cf;
      }

      .st55 {
        fill: #3118a6;
      }

      .st56 {
        fill: #21adfc;
      }

      .st57 {
        fill: #1a7ce0;
      }

      .st58 {
        fill: #1fb7fd;
      }

      .st59 {
        fill: #675ec4;
      }

      .st60 {
        fill: #3f33d0;
      }

      .st61 {
        fill: #4928b0;
      }

      .st62 {
        fill: #363dc2;
      }

      .st63 {
        fill: #0a79d0;
      }

      .st64 {
        fill: #27aafe;
      }

      .st65 {
        fill: #8663fd;
      }

      .st66 {
        fill: #4035bc;
      }

      .st67 {
        fill: #4947e5;
      }

      .st68 {
        fill: #1379d2;
      }

      .st69 {
        fill: #3530ca;
      }

      .st70 {
        fill: #934af7;
      }

      .st71 {
        fill: #6d55fd;
      }

      .st72 {
        fill: #241dc1;
      }

      .st73 {
        fill: #3e38d9;
      }

      .st74 {
        fill: #313dbf;
      }

      .st75 {
        fill: #805afd;
      }

      .st76 {
        fill: #12bffd;
      }

      .st77 {
        fill: #11c4fc;
      }

      .st78 {
        fill: #0accfd;
      }

      .st79 {
        fill: #462ec7;
      }

      .st80 {
        fill: #1c99fd;
      }

      .st81 {
        fill: #2a9efc;
      }

      .st82 {
        fill: #3b2ec9;
      }

      .st83 {
        fill: #7d4afd;
      }

      .st84 {
        fill: #0a62c6;
      }

      .st85 {
        fill: #1a63d0;
      }

      .st86 {
        fill: #7b51b6;
      }

      .st87 {
        fill: #8c49f9;
      }

      .st88 {
        fill: #2811a6;
      }

      .st89 {
        fill: url(#linear-gradient1);
      }

      .st90 {
        fill: #275dd1;
      }

      .st91 {
        fill: #369dfd;
      }

      .st92 {
        fill: #18b4fd;
      }

      .st93 {
        fill: #7a68fd;
      }

      .st94 {
        fill: #0aaffd;
      }

      .st95 {
        fill: #323fc6;
      }

      .st96 {
        fill: #2d1bc5;
      }

      .st97 {
        fill: #734efd;
      }

      .st98 {
        fill: #5b26b9;
      }

      .st99 {
        fill: #2a58ca;
      }

      .st100 {
        fill: #06b1fe;
      }

      .st101 {
        fill: #8a4af9;
      }

      .st102 {
        fill: #2966da;
      }

      .st103 {
        fill: #2f2ace;
      }

      .st104 {
        fill: #5b25b7;
      }

      .st105 {
        fill: #20affc;
      }

      .st106 {
        fill: #1484e6;
      }

      .st107 {
        fill: #8a5afb;
      }

      .st108 {
        fill: #496fc3;
      }

      .st109 {
        fill: #1d28c9;
      }

      .st110 {
        fill: #2d37d4;
      }

      .st111 {
        fill: #3a76e9;
      }

      .st112 {
        fill: #10b5f9;
      }

      .st113 {
        fill: #0880d7;
      }

      .st114 {
        fill: #4439da;
      }

      .st115 {
        fill: #442098;
      }

      .st116 {
        fill: #07bcfa;
      }

      .st117 {
        fill: #0e52bd;
      }

      .st118 {
        fill: #3349d7;
      }

      .st119 {
        fill: #673ef2;
      }

      .st120 {
        fill: #8048fd;
      }

      .st121 {
        fill: #25b1fd;
      }

      .st122 {
        fill: #2154c0;
      }

      .st123 {
        fill: #9b4cfc;
      }

      .st124 {
        fill: #502abf;
      }

      .st125 {
        fill: #5875fd;
      }

      .st126 {
        fill: #0359d6;
      }

      .st127 {
        fill: #13a4fd;
      }

      .st128 {
        fill: #20aafb;
      }

      .st129 {
        fill: #7f47fd;
      }

      .st130 {
        fill: #10abf9;
      }

      .st131 {
        fill: #0748ce;
      }

      .st132 {
        fill: #3b2ec6;
      }

      .st133 {
        fill: #616cfd;
      }

      .st134 {
        fill: #16b1fb;
      }

      .st135 {
        fill: #3b45d9;
      }

      .st136 {
        fill: #582bbf;
      }

      .st137 {
        fill: #7747f7;
      }

      .st138 {
        fill: #924ef9;
      }

      .st139 {
        fill: #2521c3;
      }

      .st140 {
        fill: #2b5bd1;
      }

      .st141 {
        fill: #7b4afd;
      }

      .st142 {
        fill: #3340c5;
      }

      .st143 {
        fill: #341aaf;
      }

      .st144 {
        fill: #9f3dfc;
      }

      .st145 {
        fill: #3013b7;
      }

      .st146 {
        fill: #4c2fb8;
      }

      .st147 {
        fill: #3d32d1;
      }

      .st148 {
        fill: #9547fd;
      }

      .st149 {
        fill: #8e40fc;
      }

      .st150 {
        fill: #491eb0;
      }

      .st151 {
        fill: #0953d9;
      }

      .st152 {
        fill: #5028a4;
      }

      .st153 {
        fill: #8550fd;
      }

      .st154 {
        fill: #6236b8;
      }

      .st155 {
        fill: #2b3cd3;
      }

      .st156 {
        fill: #7962fd;
      }

      .st157 {
        fill: #442ccc;
      }

      .st158 {
        fill: #3218b9;
      }

      .st159 {
        fill: #1bb5fe;
      }

      .st160 {
        fill: #7468fb;
      }

      .st161 {
        fill: #5962fe;
      }

      .st162 {
        fill: #0dc1fd;
      }

      .st163 {
        fill: #7351fe;
      }

      .st164 {
        fill: #0d74d1;
      }

      .st165 {
        fill: #9059fc;
      }

      .st166 {
        fill: #4a2ec6;
      }

      .st167 {
        fill: #5d7cfd;
      }

      .st168 {
        fill: #6969fb;
      }

      .st169 {
        fill: #0f6ecf;
      }

      .st170 {
        fill: #593bcb;
      }

      .st171 {
        fill: #4544d2;
      }

      .st172 {
        fill: #4832d7;
      }

      .st173 {
        fill: #0157c7;
      }

      .st174 {
        fill: #3f1ab5;
      }

      .st175 {
        fill: #0e5ecd;
      }

      .st176 {
        fill: #7d58fc;
      }

      .st177 {
        fill: #1067e5;
      }

      .st178 {
        fill: #0c6dd7;
      }

      .st179 {
        fill: #4f24a3;
      }

      .st180 {
        fill: #0b4fb2;
      }

      .st181 {
        fill: #2123c9;
      }

      .st182 {
        fill: #1b79c4;
      }

      .st183 {
        fill: #8e5bfd;
      }

      .st184 {
        fill: #7669fd;
      }

      .st185 {
        fill: #3f39d0;
      }

      .st186 {
        fill: #4699fd;
      }

      .st187 {
        fill: #8845fb;
      }

      .st188 {
        fill: #8245fd;
      }

      .st189 {
        fill: #0a7fe2;
      }

      .st190 {
        fill: #843ff7;
      }

      .st191 {
        fill: #4830cd;
      }

      .st192 {
        fill: #744efe;
      }

      .st193 {
        fill: #3241dc;
      }

      .st194 {
        fill: #3c2bcc;
      }

      .st195 {
        fill: #4f27b9;
      }

      .st196 {
        fill: #2d9efa;
      }

      .st197 {
        fill: #2095fd;
      }

      .st198 {
        fill: #17b3fd;
      }

      .st199 {
        fill: #3a4cd2;
      }

      .st200 {
        fill: #3547de;
      }

      .st201 {
        fill: #177ed2;
      }

      .st202 {
        fill: #2c3ed3;
      }

      .st203 {
        fill: #6957fe;
      }

      .st204 {
        fill: #2d45d6;
      }

      .st205 {
        fill: #0f6fd2;
      }

      .st206 {
        fill: #1d27be;
      }

      .st207 {
        fill: #0fc1fd;
      }

      .st208 {
        fill: #2c41d4;
      }

      .st209 {
        fill: #3041dd;
      }

      .st210 {
        fill: #522bbb;
      }

      .st211 {
        fill: #8643f4;
      }

      .st212 {
        fill: #8365fd;
      }

      .st213 {
        fill: #532ab9;
      }

      .st214 {
        fill: #5354d2;
      }

      .st215 {
        fill: #3b37d3;
      }

      .st216 {
        fill: #2cabfd;
      }

      .st217 {
        fill: #422ecb;
      }

      .st218 {
        fill: #0551ce;
      }

      .st219 {
        fill: url(#linear-gradient4);
      }

      .st220 {
        fill: #4822ab;
      }

      .st221 {
        fill: #1479de;
      }

      .st222 {
        fill: #1967d7;
      }

      .st223 {
        fill: #0872db;
      }

      .st224 {
        fill: #4b4fd3;
      }

      .st225 {
        fill: #5466fd;
      }

      .st226 {
        fill: #5870fd;
      }

      .st227 {
        fill: #7052fd;
      }

      .st228 {
        fill: #3386fb;
      }

      .st229 {
        fill: #0d7bdc;
      }

      .st230 {
        fill: #1fadfc;
      }

      .st231 {
        fill: #8361fd;
      }

      .st232 {
        fill: #4e28b5;
      }

      .st233 {
        fill: #177ece;
      }

      .st234 {
        fill: #2617b7;
      }

      .st235 {
        fill: #9c50fd;
      }

      .st236 {
        fill: #189efd;
      }

      .st237 {
        fill: #944ffd;
      }

      .st238 {
        fill: #915afd;
      }

      .st239 {
        fill: #2b42e0;
      }

      .st240 {
        fill: #157ecf;
      }

      .st241 {
        fill: #3320b6;
      }

      .st242 {
        fill: #1c61bd;
      }

      .st243 {
        fill: #0d48b2;
      }

      .st244 {
        fill: #1f53cc;
      }

      .st245 {
        fill: #0e6ad7;
      }

      .st246 {
        fill: url(#linear-gradient3);
      }

      .st247 {
        fill: #2590fd;
      }

      .st248 {
        fill: #137cdf;
      }

      .st249 {
        fill: #8b57fd;
      }

      .st250 {
        fill: #1267d1;
      }

      .st251 {
        fill: #582dc8;
      }

      .st252 {
        fill: #676bfd;
      }

      .st253 {
        fill: #1b84d4;
      }

      .st254 {
        fill: #1bb8fc;
      }

      .st255 {
        fill: #785efc;
      }

      .st256 {
        fill: #4e45d7;
      }

      .st257 {
        fill: #301ab5;
      }

      .st258 {
        fill: #0dc4fe;
      }

      .st259 {
        fill: #2e1bb9;
      }

      .st260 {
        fill: #1ab9fd;
      }

      .st261 {
        fill: #422bc0;
      }

      .st262 {
        fill: #107cda;
      }

      .st263 {
        fill: #077ad4;
      }

      .st264 {
        fill: #5630b1;
      }

      .st265 {
        fill: #9652fd;
      }

      .st266 {
        fill: #452399;
      }

      .st267 {
        fill: #5069fe;
      }

      .st268 {
        fill: #502bc0;
      }

      .st269 {
        fill: #0ca8fe;
      }

      .st270 {
        fill: #4e25c1;
      }

      .st271 {
        fill: #7541d9;
      }

      .st272 {
        fill: #5469fd;
      }

      .st273 {
        fill: #784dfe;
      }

      .st274 {
        fill: #5630c7;
      }

      .st275 {
        fill: #2714bf;
      }

      .st276 {
        fill: #635bfe;
      }

      .st277 {
        fill: #3e16a3;
      }

      .st278 {
        fill: #6471fc;
      }

      .st279 {
        fill: #5e5efe;
      }

      .st280 {
        fill: #5829be;
      }

      .st281 {
        fill: #7b57fd;
      }

      .st282 {
        fill: #10c5fd;
      }

      .st283 {
        fill: #189ffd;
      }

      .st284 {
        fill: #258ade;
      }

      .st285 {
        fill: #442bb7;
      }

      .st286 {
        fill: #612eb3;
      }

      .st287 {
        fill: #35178d;
      }

      .st288 {
        fill: #542dcb;
      }

      .st289 {
        fill: #301aaa;
      }

      .st290 {
        fill: #625bfd;
      }

      .st291 {
        fill: #3f1ea3;
      }

      .st292 {
        fill: #06d3fd;
      }

      .st293 {
        fill: #6a31c9;
      }

      .st294 {
        fill: #6958fb;
      }

      .st295 {
        fill: #5324b8;
      }

      .st296 {
        fill: #4159df;
      }

      .st297 {
        fill: #615cfd;
      }

      .st298 {
        fill: #774cfe;
      }

      .st299 {
        fill: #6658fd;
      }

      .st300 {
        fill: #1a6cce;
      }

      .st301 {
        fill: #0f76d1;
      }

      .st302 {
        fill: #3d80fa;
      }

      .st303 {
        fill: #9160fc;
      }

      .st304 {
        fill: #5627b7;
      }

      .st305 {
        fill: #5c2cb8;
      }

      .st306 {
        fill: #5767fd;
      }

      .st307 {
        fill: #04b5fe;
      }

      .st308 {
        fill: #3419aa;
      }

      .st309 {
        fill: #7f46fd;
      }

      .st310 {
        fill: #8b4efd;
      }

      .st311 {
        fill: #342ec9;
      }

      .st312 {
        fill: #361aa9;
      }

      .st313 {
        fill: #4d2ead;
      }

      .st314 {
        fill: #6136c8;
      }

      .st315 {
        fill: #6d55fe;
      }

      .st316 {
        fill: url(#linear-gradient);
      }

      .st317 {
        fill: #6373fc;
      }

      .st318 {
        fill: #005fca;
      }

      .st319 {
        fill: #9551fd;
      }

      .st320 {
        fill: #231ac6;
      }

      .st321 {
        fill: #2663d3;
      }

      .st322 {
        fill: #8557fd;
      }

      .st323 {
        fill: #7f48fd;
      }

      .st324 {
        fill: #4e3ada;
      }

      .st325 {
        fill: #0855cd;
      }

      .st326 {
        fill: #3934d2;
      }

      .st327 {
        fill: #3938d1;
      }

      .st328 {
        fill: #0fbafc;
      }

      .st329 {
        fill: #3d2acc;
      }

      .st330 {
        fill: #0b73e7;
      }

      .st331 {
        fill: #8143fd;
      }

      .st332 {
        fill: #6757fd;
      }

      .st333 {
        fill: #4047bf;
      }

      .st334 {
        fill: #5e76fd;
      }

      .st335 {
        fill: #0e80d6;
      }

      .st336 {
        fill: #3614a7;
      }

      .st337 {
        fill: #0f5ecb;
      }

      .st338 {
        fill: #8356fd;
      }
    </style>
    <linearGradient id="linear-gradient" x1="247.93" y1="242.67" x2="386.79" y2="565.52" gradientTransform="translate(0 30.27) scale(.25)" gradientUnits="userSpaceOnUse">
      <stop offset="0" stop-color="#0faafb"/>
      <stop offset="1" stop-color="#6159fb"/>
    </linearGradient>
    <linearGradient id="linear-gradient1" x1="200.09" y1="295.24" x2="243.04" y2="509.83" gradientTransform="translate(0 30.27) scale(.25)" gradientUnits="userSpaceOnUse">
      <stop offset="0" stop-color="#10abf9"/>
      <stop offset="1" stop-color="#4572fa"/>
    </linearGradient>
    <linearGradient id="linear-gradient2" x1="445.97" y1="118.33" x2="558.07" y2="243.69" gradientTransform="translate(0 30.27) scale(.25)" gradientUnits="userSpaceOnUse">
      <stop offset="0" stop-color="#09b0fd"/>
      <stop offset="1" stop-color="#2a8bfd"/>
    </linearGradient>
    <linearGradient id="linear-gradient3" x1="599.21" y1="302.27" x2="796.52" y2="505.87" gradientTransform="translate(0 30.27) scale(.25)" gradientUnits="userSpaceOnUse">
      <stop offset="0" stop-color="#4471fd"/>
      <stop offset="1" stop-color="#853efc"/>
    </linearGradient>
    <linearGradient id="linear-gradient4" x1="351.72" y1="155.13" x2="663.65" y2="647.94" gradientTransform="translate(0 30.27) scale(.25)" gradientUnits="userSpaceOnUse">
      <stop offset="0" stop-color="#07b2fd"/>
      <stop offset=".69" stop-color="#6b55fe"/>
      <stop offset="1" stop-color="#8641fb"/>
    </linearGradient>
  </defs>
  <path class="st294" d="M224.96,98.08c.16.13.31.28.54.27.36.17.63.47.82.82.11.24.19.47.27.54.2.51.2,1.06,0,1.63-.4,1.24-1.68,1.98-2.72,1.69l-1.36-.6c-.09-.23-.44-.43-.54-.54-.6-1.11-.6-2.01,0-2.72.69-.91,1.87-1.48,2.99-1.09Z"/>
  <path class="st302" d="M34.62,160.89c.12.16.39.18.54.27.88.99.86,2.4.27,3.53-.48.63-.6.63-1.36.82-.85.26-1.58.17-2.18-.27-.22-.07-.39-.42-.54-.54-.34-.47-.61-1.04-.54-1.63-.11-.35.22-.8.27-1.09.66-1.26,2.28-1.51,3.53-1.09Z"/>
  <path class="st36" d="M84.93,204.12c.47.62.74,1.43.82,2.45v.27c-.36.94-.75,1.02-1.36,1.36-.62.2-1.27.13-1.9,0-.89-.28-1.02-.67-1.36-1.36v-.27c.22-.43.22-.93,0-1.36-.09-.26,0-.53.27-.82.38-.22.39-.85.82-.82.88-.18,2.48-.49,2.72.54Z"/>
  <path class="st228" d="M176.01,54.03c.23.15.49.54.82.54l.54,1.09c.2.36.2.81,0,1.36-.3.79-.77,1.44-1.67,1.63-.2-.12-.19-.21.04-.27-.43-.22-.93-.22-1.36,0h-.27c-.41-.15-.51-.33-.82-.54l-.82-1.63c-.1-.98.52-1.32,1.09-1.9.73-.47,1.63-.6,2.45-.27Z"/>
  <path class="st187" d="M199.94,178.83c.04.09.18.25.27.27,1.86,4.39-3.61,5.22-3.96.83l-.11-.28c.22-.48.81-.99,1.36-1.09.78-.36,1.74-.2,2.45.27Z"/>
  <path class="st96" d="M194.23,117.65c.21,6.4.28,13.39,0,19.85.23.35.21,1.22,0,1.63-.08.24-.17.23-.27,0v-30.18c.24-.28.45-.31.45-.03.02,2.9,0,5.91-.18,8.73Z"/>
  <path class="st112" d="M57.74,79.86c.23.42.76.33,1.03.66,1.02,1.21.4,3.29-1.03,3.88-.46.06-.83,0-1.09-.19-.29-.54,0-.88.87-1,1.27-1.37.02-2.93-1.69-2.11l-.54-.43c-.13-.08-.12-.17,0-.27.27-.18.46-.5.82-.54.51-.23,1.12-.24,1.63,0Z"/>
  <path class="st158" d="M194.23,155.72c-.07.16.05.38,0,.54-.1.03-.27-.09-.27-.3v-16.83s.27,0,.27,0c.22,5.34.25,11.12,0,16.59Z"/>
  <path class="st70" d="M200.21,179.1c.29.07.36.37.54.54.16.61.19,1.25.07,1.9-.23.79-.66,1.18-1.43,1.43-.63.09-1.27.07-1.9-.07-.32-.25-.55-.52-.82-.82-.36-.51-.54-1.06-.54-1.63.06-.25-.09-.58,0-.82,1.11-.53-.25,2.34,1.89,2.92.85.23,1.8-.14,2.2-.89.44-.81.45-1.82-.55-2.43.1-.23.33-.16.54-.15Z"/>
  <path class="st90" d="M34.62,160.89c-1.32-.18-2.62.07-3.53,1.09.34-1.81,3.19-1.54,3.53-1.09Z"/>
  <path class="st170" d="M85.47,204.39c-.23.31-.52.07-.54-.27-.97-1.27-2.99.06-2.72-.54.47-.72,3.53-.29,3.26.82Z"/>
  <path class="st99" d="M35.44,164.69c.39-1.24.29-2.37-.27-3.53,1.2.77,1.05,2.52.27,3.53Z"/>
  <path class="st23" d="M224.96,98.08c-1.01-.08-2.24.31-2.99,1.09.56-1.11,2.07-1.81,2.99-1.09Z"/>
  <path class="st68" d="M55.02,83.12c.83-.17,1.01.46.27.82-1.14-.64-1.27-2.15-.54-2.99l.22.09c-.16.72-.14,1.42.05,2.08Z"/>
  <path class="st67" d="M122.72,153.82c-.14.4-.32.68-.54.82h-.27c0-.68-.39-1.48.18-2.11.17.73.62.9.63,1.3Z"/>
  <path class="st107" d="M85.47,204.39c.1.24.19.47.27.54.14.53.13,1.1,0,1.63-.51-.44-.12-1.24-.64-1.82l-.43-.49c-.05-.06.15-.18.26-.14.11.15.41.15.54.27Z"/>
  <path class="st261" d="M218.16,122c-.5.53-.27,1.45-.27,2.18h-.27c0-1.08-.06-2.42.54-3.26v1.09Z"/>
  <path class="st77" d="M55.29,80.67c.58.54.44,2.06-.27,2.45-.54-.58-.19-1.43-.27-2.18.25-.29.34-.41.54-.54-.02.08.03.19,0,.27Z"/>
  <path class="st66" d="M221.97,101.88c-.51-.53-1.09-2.41,0-2.72-.65.67-.02,1.94,0,2.72Z"/>
  <path class="st201" d="M56.65,84.21c.36,0,.85-.13,1.09.19-1,.41-2.08.29-2.45-.46.29-.72,1.33-.46,1.36.27Z"/>
  <path class="st172" d="M157.52,152.19c.49-.43.27-1.27.27-1.9h.27c0,3.62-.55,2.21-.55,2.32v-.42Z"/>
  <path class="st285" d="M81.12,205.21c.23.41.23.94,0,1.36v.27c-.45-.91-.55-1.96.27-2.45-.05.28-.13.56-.27.82Z"/>
  <path class="st280" d="M199.94,178.83c-.78-.21-1.63-.42-2.45-.27.59-.64,2.15-.34,2.45.27Z"/>
  <path class="st321" d="M176.01,54.03c-.78-.06-1.69,0-2.45.27.61-.63,1.62-.91,2.45-.27Z"/>
  <path class="st204" d="M158.07,113.3c-.09,0-.18.02-.27,0,0-.37.14-.91-.27-1.09.1-.26.04-.72.52-.83.05.75.02,1.32.02,1.91Z"/>
  <path class="st195" d="M240.73,132.34c.05-.57-.61-1.46,0-2.18.64-.14-.22,1.57,0,2.18Z"/>
  <path class="st39" d="M34.08,165.51c-.71.17-1.79.68-2.18-.27.7.23,1.44.34,2.18.27Z"/>
  <path class="st335" d="M98.25,38.53c0,.54.55,1.74,0,1.63-.25-.61-.53-1.4,0-1.9.12.08.12.17,0,.27Z"/>
  <path class="st140" d="M31.36,164.69c-.57-.34-.92-1.08-.54-1.63.24.52.45,1.06.54,1.63Z"/>
  <path class="st304" d="M196.68,182.1c-.42-.41-1.06-1.04-.54-1.63.34.48.44,1.06.54,1.63Z"/>
  <path class="st102" d="M173.3,57.83c-.63-.43-.74-.88-.82-1.63.48.4.7,1.03.82,1.63Z"/>
  <path class="st152" d="M199.4,182.98c-.68.23-1.28.41-1.9-.07.57-.37,1.27.19,1.9.07Z"/>
  <path class="st0" d="M200.83,181.55c-.11-.63-.15-1.27-.07-1.9.57.54.25,1.28.07,1.9Z"/>
  <path class="st313" d="M84.38,208.2c-.86.48-1.2.22-1.9,0h1.9Z"/>
  <path class="st146" d="M85.74,206.84v-1.9c.33.31.17,1.45,0,1.9Z"/>
  <path class="st182" d="M57.74,79.86h-1.63c.34-.46,1.29-.46,1.63,0Z"/>
  <path class="st108" d="M177.37,57.02v-1.63c.56.56.22,1.06,0,1.63Z"/>
  <path class="st60" d="M153.17,146.2c-.46-.19-.81-.58-.82-1.09.46.18.79.58.82,1.09Z"/>
  <path class="st209" d="M145.83,126.08c0-.51.37-.89.82-1.09,0,.51-.37.89-.82,1.09Z"/>
  <path class="st270" d="M241.54,128.53c-.04.4-.17.87-.54,1.09-.07-.56.16-1,.54-1.36v.27Z"/>
  <path class="st244" d="M175.74,58.38c.01.09,0,.19-.04.27-.64.14-1.07-.09-1.6-.27h.27c.41-.23.94-.23,1.36,0Z"/>
  <path class="st124" d="M217.89,141.85c-.47-.34-.27-1.09-.27-1.63h.27v1.63Z"/>
  <path class="st24" d="M223.87,103.03c-.74-.2-1.12.02-1.36-.6.49.12,1.1.12,1.36.6Z"/>
  <path class="st59" d="M226.59,101.34v-1.63c.64.56.15,1.16,0,1.63Z"/>
  <path class="st329" d="M156.17,150.28c-.47-.18-.79-.59-.82-1.09.49.18.75.59.82,1.09Z"/>
  <path class="st104" d="M173.84,193.79c.17.3.07.78-.27.82h-.27c-.03-.62.36-.8.54-1.09v.27Z"/>
  <path class="st122" d="M177.37,55.39v.27c-.38-.23-.5-.67-.54-1.09.52,0,.33.61.54.82Z"/>
  <path class="st232" d="M195.05,158.17c-.11-.31-.79-.55-.54-1.09.38.22.49.67.54,1.09Z"/>
  <path class="st35" d="M226.32,99.16c-.37-.16-.65-.45-.82-.82.67-.02.8.42.82.82Z"/>
  <g>
    <path class="st11" d="M58.01,172.58c.28.35.55.72.82,1.09.19,1.5.19,2.95,0,4.35-.17,1.71-.25,3.45-.22,5.2l-.77-.25c.16-1.15-1.16-.81-2.03-.53-.39.47-.82.61-1.29.42-.12-2.73-.22-5.52-.31-8.37-.22-.07-.2-.4,0-.54-.07-.23.02-.5.27-.82.32-.31.57-.74,1.09-.82.81-.33,1.71-.13,2.45.27Z"/>
    <path class="st16" d="M59.03,185.63l-.48.82c-.32.55-.74.91-1.36,1.09-.52.25-1.1.12-1.63,0-.62-.27-1.36-.52-1.36-1.36-.21-.28-.21-.83,0-1.09.09-.77.19-1.51.31-2.23,1.79-1.71.4-.34,3.73-1.56.16.59-.28,1.09.23,1.63.24-.13-.21-5.34.35-4.91.08,2.51.15,5.05.21,7.61Z"/>
    <path class="st142" d="M54.2,174.48c.23,3.47.27,7.11,0,10.6v1.09c-.1.03-.27-.1-.27-.29v-11.94c.07-.24.16-.23.27,0v.54Z"/>
    <path class="st95" d="M59.03,185.63c-.48-2.48-.21-5.07-.21-7.61v-4.35c.6,3.9.17,7.97.21,11.96Z"/>
    <path class="st118" d="M58.01,172.58c-.82-.09-1.62-.39-2.45-.27.65-.55,1.91-.41,2.45.27Z"/>
    <path class="st62" d="M57.19,187.53c.43-.39.87-.77,1.36-1.09-.17.28-.12.64-.39.85-.29.23-.68.2-.97.24Z"/>
    <path class="st333" d="M57.19,187.53c-.48.53-1.11.23-1.63,0h1.63Z"/>
    <path class="st296" d="M54.2,173.94h-.27c0-.5.25-.53.54-.82.02.3-.04.61-.27.82Z"/>
    <path class="st167" d="M54.51,182.86c0,.75.11,1.62-.31,2.23v-10.6c.21-.02.28.25.28.53l.04,7.84Z"/>
  </g>
  <path class="st303" d="M81.12,206.57v-1.36c.45.23.45,1.12,0,1.36Z"/>
  <path class="st186" d="M175.74,58.38h-1.36c.23-.45,1.12-.45,1.36,0Z"/>
  <path class="st130" d="M56.65,84.21c-.47-.01-.9-.17-1.36-.27-.08-.25-.08-.61-.27-.82-.05-.83,0-1.66.27-2.45.7-.14,1.57-.58,2.36-.17,1.18.61,1.23,2.51.14,3.17-.42.26-.97.12-1.14.53Z"/>
  <g>
    <g>
      <path class="st316" d="M86.01,165.51c-.17,3.59-.2,7.21-.08,10.88-.12,2.08-2.13,3.63-3.73,4.14-.43.28-1.95.09-1.71.03s.64.17.35.46c-2.89.16-5.73-1.16-6.25-3.81-.2-.51-.29-.96-.27-1.36-.09-5.58-.18-11.2-.27-16.86v-32.9c.09-5.72.18-11.43.27-17.13-.09-6.67-.18-13.38-.27-20.12.64-3.16,3.44-5.08,6.51-4.96,2.79.11,5.43,2.48,5.43,5.05l.02,76.59Z"/>
      <path class="st218" d="M74.32,108.95c-.08.24-.17.23-.27,0v-20.12c.1-.03.27.09.27.3v19.82Z"/>
      <path class="st131" d="M74.05,126.08v-17.13h.27v16.83c0,.2-.17.33-.27.3Z"/>
      <path class="st206" d="M74.32,175.84c-.08.24-.17.23-.27,0v-16.86c.1-.03.27.09.27.3v16.56Z"/>
      <path class="st51" d="M85.94,176.39c-.48-3.34-.01-6.79-.23-10.34-.02-.28.14-.56.31-.54,0,3.79.13,7.35-.08,10.88Z"/>
      <path class="st256" d="M82.21,180.52c-.56.18-.88.46-1.36.48-.04-.2-.27-.19-.55-.43.61-.25,1.28-.08,1.91-.05Z"/>
      <path class="st171" d="M74.59,177.2c-.19-.53-.54-.8-.54-1.36h.27c0,.41.49.89.27,1.36Z"/>
      <g>
        <path class="st94" d="M80.85,55.12c.06-.05.31.38.54.27.3.17.57.45.82.82.5.65.55,1.73.27,2.45.16,3.34.21,6.79.15,10.34l-.42,1.36c-.05.04-.17.11-.27.27h-.27c-.73.26-1.64.36-2.72.27h-.27c-.3-.37-.7-.33-.82-1.09v-.54c.23-4.1.23-8.42,0-12.51v-.27c.01-.12-.02-.46.27-.54.39-.35.85-.62,1.36-.82.5-.19.96-.19,1.36,0Z"/>
        <path class="st223" d="M77.86,56.75c.23,4.08.23,8.42,0,12.51v.54c-.53-3.58-.35-10.01,0-13.32v.27Z"/>
        <path class="st284" d="M82.21,70.34c.02-.42.15-.85.28-1.37v-10.32c.07-.24.16-.23.27,0l.02,10.6c0,.39-.38.96-.56,1.09Z"/>
        <path class="st164" d="M81.94,70.61c-.65.99-2.41,1.3-3.26.27h.27c1.02.12,1.76.03,2.72-.27h.27Z"/>
        <path class="st240" d="M82.75,58.65h-.27c0-.83.03-1.66-.27-2.45.79.49.54,1.32.54,2.45Z"/>
        <path class="st63" d="M79.49,55.12c-.43.51-.89.68-1.36.82.16-.72.82-.69,1.36-.82Z"/>
        <path class="st301" d="M82.21,56.2c-.36-.17-.66-.45-.82-.82.7-.34.46.6.82.82Z"/>
        <path class="st253" d="M80.85,55.12h-1.36c.41-.1,1.05-.69,1.36,0Z"/>
        <path class="st162" d="M77.86,69.25v-12.51c.1-.03.27.1.27.29v11.92c0,.19-.17.32-.27.29Z"/>
        <path class="st328" d="M81.66,70.61c-.83.54-1.85.81-2.72.27-.01-.29.45-.34.75-.22,1.26.54,1.78-.94,1.97-.06Z"/>
      </g>
    </g>
    <g>
      <path class="st38" d="M7.16,124.72c1.06.1,2.15.19,3.26.27.65-.1,1.37.17,2.18.82l1.63,1.63c.04.19.22.35.27.54l.64,1.36c.07.36.34.71.39,1.09-.12.81-.14,1.64.02,2.45-.03.28-.17.54-.22.82-.44.57-.85.32-1.22-.75-1.27.61-2.71.45-4.05.19-1.05,1.18-1.55.76-2.28-.36-.6.45-1.37.46-2.33.05-1.37.15-2-.19-1.89-1.03-1.06.74-1.55.36-1.47-1.13l-.33-.09-.31-1.23c.27-.84.86-1.49,1.36-2.18.3-.47.67-.83,1.09-1.09l.82-.54,1.09-.54c.5-.29.96-.38,1.36-.27Z"/>
      <path class="st283" d="M15.32,133.7c-.23,1.08-.88,2-1.57,2.77-1.24.77-2.53,1.47-3.93,1.9.41-.14.4-.1.05.26-.08.02-.15.13-.23.17l-.31-.2c-1.34-.04-2.61-.31-3.81-.82-.06.14-.11.24-.12.24-.64-.27-1.24-.61-1.78-1.05-.21-.29-.76-.36-.82-.82l.02-.38c-.39-.68-.67-1.55-.84-2.61-.52-.47-.39-2,.09-2.48.11,0,.24-.03.36-.03-.12.45-.28.72-.07,1.18.6-.52,1.3-.79,2.05-.34-.12.4-.46.47-.52.87,1.09-.26,2.21-.02,3.06.38.4-.26.99-.93,1.18-.6l.65,1.19c.21.38.75-.67,1.09-.77,1.56.32,3.83.64,4.84-.85,0,.92-.14,1.74.59,1.99Z"/>
      <path class="st128" d="M13.75,136.46c-.51.57-.89,1.02-1.69,1.31l-1.36.54c-.24.12-.54.27-.82.3-.04-.18-.15-.29-.26-.51,1.7,0,3.33-1.93,4.14-1.65Z"/>
      <path class="st105" d="M2.09,130.67c.11.78-.32,1.72-.09,2.48-.08.24-.17.23-.27,0-.08.24-.17.23-.27,0,.02-.08,0-.19,0-.27-.24-.88-.24-1.83,0-2.72,0-.25-.07-.58,0-.82.38-.11.54.16.56.42.02.35.04.62.08.91Z"/>
      <path class="st230" d="M2.81,136.14c-.02-.19-.23-.35-.27-.54l-.54-1.09c-.31-.5-.4-.95-.27-1.36h.27c.58,1.98,1.87,3.02.82,2.99Z"/>
      <path class="st300" d="M5.53,137.77c.65.16,1.19.43,1.63.82.24.08.23.17,0,.27-1.31-.31-2.76-.81-3.53-1.9l1.9.82Z"/>
      <path class="st106" d="M9.34,124.45c.24.08.23.17,0,.27-.65.19-1.47.1-2.18,0-.45.03-.89.32-1.36.27.36-.58,3.34-1.15,3.53-.54Z"/>
      <path class="st28" d="M12.6,125.81l-2.18-.82c-.5.07-.87-.02-1.09-.27v-.27c1.17.06,2.55.39,3.26,1.36Z"/>
      <path class="st57" d="M14.23,127.44c-.67-.4-1.18-1.01-1.63-1.63.74.28,1.47.87,1.63,1.63Z"/>
      <path class="st41" d="M1.45,132.88c-.47-.72-.47-2,0-2.72v2.72Z"/>
      <path class="st175" d="M15.54,132.88c-.4-.69-.36-1.74-.02-2.45.1.81.11,1.63.02,2.45Z"/>
      <path class="st117" d="M9.34,138.59c.11,0,.4.03.31.2-.79-.01-1.7.25-2.48.07v-.27c.49-.26,1.55-.2,2.18,0Z"/>
      <path class="st50" d="M3.9,126.08c-.24.46-.62.84-1.09,1.09.3-.41.27-1.22,1.09-1.09Z"/>
      <path class="st245" d="M15.14,129.35c-.53-.23-.51-.86-.64-1.36.62.18.54.84.64,1.36Z"/>
      <path class="st54" d="M12.06,137.77c-.41.15-.78.75-1.36.54.28-.46.85-.55,1.36-.54Z"/>
      <g>
        <path class="st89" d="M61,106.23c.16.45.48.77.82,1.09-.02.65.27,1.04.27,1.67l.02,45.33c0,2.87-1.45,5.11-3.97,6.04-4.89,1.81-8.28-2.79-8.28-4.76l.07-47.28c0-2.76,4.57-6.15,8.01-4.48,1.3.63,2.37,1.26,3.07,2.39Z"/>
        <path class="st229" d="M61.81,107.32c-.6.06-.77-.58-.82-1.09.27.44.84.59.82,1.09Z"/>
      </g>
      <path class="st242" d="M2,134.51c-.28-.41-.7-.77-.54-1.36h.27c.12.45.25.89.27,1.36Z"/>
      <path class="st337" d="M2.54,135.6c-.64-.03-.34-.79-.54-1.09.34.26.52.66.54,1.09Z"/>
      <path class="st40" d="M5.8,125c-.23.37-.68.5-1.09.54.14-.49.63-.59,1.09-.54Z"/>
      <path class="st198" d="M9.34,124.72c.32.14.8-.04,1.09.27,1.12.41-4.62-.14-3.26-.27.76-.05,1.48-.31,2.18,0Z"/>
      <path class="st56" d="M9.34,138.59h-2.18c-.64,0-1.15-.61-1.63-.82.81-.05,1.5.55,2.45.56.51,0,1.16-.2,1.36.26Z"/>
      <g>
        <path class="st127" d="M31.63,117.11c.61.28,1.28.17,1.9,0,.63,0,1.26.18,1.9.54.48.25.84.87,1.36,1.09.36.32.45.6.27.82,1.09,2.13,1.34,4.49.76,7.08l-.25.56c.19,1.38-.14,1.84-.97,1.38-.12-.51-.53-.62-1.21-.34-.76-.49-1.55-.51-2.38-.03l-3.54-.93c-2.04.64-2.82-.51-2.33-3.46l-.15-.45c-.07-.53-.16-1.07-.27-1.63v-.54c.06-.61.12-.92.54-1.36l.82-1.09.27-.27,1.09-.82c.54-.26,1.09-.44,1.63-.54.07-.23.37-.18.54,0Z"/>
        <path class="st247" d="M37.89,142.13c-.07.62.02.89.27.82-.58,1.57-1.72,3.48-3.49,3.46-1.27.39-3.16.29-4.4-.19-.39.19-1.15-.12-.82-.54-1.47-1.08-3.05-2.89-2.37-4.8.32-.65.83-.48,1.54.52,1.47-.38,3-.57,4.59-.58,1.28-.9,2.48-1.14,3.59-.73.34-.39.71-.52,1.08-.4.23.66.22,1.76,0,2.45Z"/>
        <path class="st22" d="M26.74,121.73c.23,2.22.21,4.62,0,6.8.23,3.68.23,7.92,0,11.69.25.55.36,1.71,0,2.18-.04.04-.34-.12-.33-.31.32-7.06-.34-14.05.33-20.9v.54Z"/>
        <path class="st325" d="M38.16,142.67c-.41.02-.29-.31,0-.54-.21-2.95-.3-6.27,0-9.24-.26-3.41-.25-7.38,0-10.88.08-.24.17-.23.27,0v20.36c0,.21-.17.33-.27.3Z"/>
        <path class="st254" d="M37.61,119.83c.08.14.16.42.27.54.28.58.37,1.13.27,1.63v10.88c-.08.24-.17.23-.27,0-.44-.27-.42-1.57-.05-1.96-.51-.63-.68-1.45-.52-2.48.19-.58.36-1.18.52-1.8l.06-4.1c.02-1.12-.55-2.03-.82-2.98.1-.3.29-.21.54.27Z"/>
        <path class="st81" d="M27.09,140.86c.08.81-.04,1.88.52,2.57l1.84,2.23c-.68.12-1.32-.33-1.9-1.36l-.54-1.09c-.14-.24-.27-.49-.27-.82v-2.18c.08-.24.17-.23.27,0,.53.13.57.39.08.64Z"/>
        <path class="st196" d="M34.67,146.4c-.27.15-.52.62-.86.62-1.26-.03-2.44-.21-3.53-.54-.24-.08-.23-.17,0-.27,1.47.35,2.91.18,4.4.19Z"/>
        <path class="st85" d="M29.46,145.66c.14.37.46.46.82.54v.27c-1.18-.13-2.38-1.02-2.72-2.18.64.38,1.11,1.25,1.9,1.36Z"/>
        <path class="st30" d="M33.81,147.02h-2.45c-.5,0-.86-.25-1.08-.54,1.05.41,3.79.09,3.53.54Z"/>
        <path class="st27" d="M33.54,116.84c.24.08.23.17,0,.27-.61.18-1.3.28-1.9,0-.18-.04-.37.03-.54,0-.24-.08-.23-.17,0-.27.81-.02,1.64-.05,2.45,0Z"/>
        <path class="st221" d="M35.44,117.65c-.69.01-1.27-.35-1.9-.54v-.27c.67.04,1.45.35,1.9.82Z"/>
        <path class="st169" d="M31.09,117.11c-.44.41-1.05.52-1.63.54.47-.26,1.02-.8,1.63-.82v.27Z"/>
        <path class="st197" d="M38.16,142.13v.54c0,.08.03.19,0,.27-.27.14-.47.35-.55.12-.18-.53.28-.73.28-.94.08-.24.17-.23.27,0Z"/>
        <path class="st205" d="M38.43,122h-.27c0-.54-.42-1.07-.27-1.63.4.44.54,1.04.54,1.63Z"/>
        <path class="st178" d="M29.46,117.65c-.19.45-.58.82-1.09.82.1-.58.7-.6,1.09-.82Z"/>
        <path class="st248" d="M37.61,119.83l-.54-.27c-.08-.27-.28-.52-.27-.82.47.2.78.59.82,1.09Z"/>
        <path class="st84" d="M27.28,119.83c.26-.27.19-1.07.82-1.09,0,.51-.36.9-.82,1.09Z"/>
        <path class="st222" d="M27.55,144.3c-.52-.14-.5-.65-.54-1.09.42.18.44.73.54,1.09Z"/>
        <path class="st236" d="M37.83,126.64c-.02,1.43.11,2.85,0,4.28-.23.29-.31.9-.23,1.82-.24,1.04-.93.86-1.3-.04-1.3.55-2.73.68-4.29.38-.9.15-1.68.06-2.34-.24-2.46.99-2.64-1.14-2.36-3l-.29-.22c-.24-.15-.2-.83,0-1.09-.23-1.56-.21-3.56,0-5.17.15,0,.6.01.53.13l-.27.46c-.29.5-.13,1.88.28,2.6s1.5.05,2.04.19l3.48.93c.5.13.91-.65,1.39-.43.45.21.78.59,1.28.42.28-.09.6-.35.92-.68.17.57.02,1.25.62,1.38.13-.73-.07-1.36.2-1.87.1.02.22.18.34.14Z"/>
        <path class="st260" d="M27.01,123.36v5.17c-.08.24-.17.23-.27,0v-6.8c.49.35.27,1.09.27,1.63Z"/>
        <path class="st92" d="M33.54,117.11c-.41.49-1.47.45-1.9,0,.6.13,1.32-.18,1.9,0Z"/>
        <path class="st197" d="M37.81,135.92c.29,1.18.28,2.55.08,3.76-.56.48-.44,1.36-.62,2.17-.45.48-.65.03-.29-.4.15-.62-.36-.94-.83-1.04-.55-.12-1.11-.15-1.56.3-1.29,1.3-4.12.4-5.65,1.11-.2.1-.27.55-.43.55-.92,0-.09-1.31-1.42-1.5-.02-.21-.08-.43-.08-.64-.24-1.31-.23-3.02,0-4.35.49-.48.9-.14,1.24,1.01,1.2.41,1.97.17,2.32-.72.74-.44,1.58-.36,2.54.24,1.37-1.02,2.29-.9,2.77.34l.97-.12c.09-.71.32-1.26.97-.7Z"/>
        <path class="st121" d="M38.16,142.13h-.27v-2.45c0-1.25-.11-2.51-.08-3.76-.85-.22-.75-2.79.08-3.04h.27v9.24Z"/>
        <path class="st6" d="M27.01,129.62c.31.34.38.94.21,1.81.32.72.59,3.8.15,4.26-.09.09-.22.14-.36.18v4.35h-.27v-11.69h.27v1.09Z"/>
        <path class="st80" d="M37.83,130.92c-.05.62.07,1.33.05,1.96l-.08,3.04c-.7-.12-.22,2.83-1.12,1.16-.38-.09-.83.46-1.18.14-.31-.28-.26-.84-.58-.95-.93-.32-1.27,1.45-2.89.26-.41-.31-1.04-.09-1.29.19-.17.19-.32.78-.61.9-.89.02-1.85-.53-2.56.09,0-.95-.01-1.55-.57-1.84v-6.25c1.24-1,.03,1.61.56,2.27.33.41.91.86,1.52.64.28-.1.5-.43.7-.37.14.04.34.52.47.5,3.06-.5,5.15.9,6.19-1.01.45.25.17.84.58,1.36.69-.05-.1-2.63.8-2.09Z"/>
      </g>
    </g>
  </g>
  <g>
    <path class="st12" d="M122.45,48.32l.54.42.08,2.25c.43.05.9-.02,1.41-.22,1.23-1.05,2.02-1.06,2.4-.02.73-.63,1.36-1.11,2.4-1.12-.09-1.16-.04-1.54,1.3-1.18.37-.65,1.04-.89,2-.71l-.07-2.75c.09-1.14.69-2.45,1.34-1.05.21.25.22.6.02.86-.24,6.23-.23,12.8,0,19.03.09,3.42.18,6.86.27,10.33l-.08,21.45c0,1.3-1.52,2.46-2.29,3.36l-10.07,11.68c.05-.69.11-1.21.2-1.69.1-3.01.2-6,.27-8.97.09-3.54.18-7.08.27-10.6-.23-4.17-.23-8.83,0-13.05-.09-7.03-.18-14.1-.27-21.21-.09.24-.18.24-.27,0,0-3.63-.27-7.33-.27-10.88-.24-.08-.23-.17,0-.27.07-.11.25-.21.54-.27.2-.21.52-.33.67-.14.52.66-.05,3.96-.4,4.76Z"/>
    <path class="st33" d="M102.6,33.91c3.18.04,6.37.16,9.59.38,2.95.19,5.92.23,8.91.13.59.03.73.06.99.53.6,1.07-.52,2.25-1.79,1.27.06,1.01-.16,1.54-1.11,1.92-1.81,0-2.77.62-2.9,1.86-.41.8-.88,1.11-1.69.57-.69.93-1.58,1.83-2.32.43-.63,2-2.06,1.05-2.13-.67-.02,2.26-1.11,2.59-2.67.95-.52.6-1.13.85-1.91.93-.24.02-3.7-.5-3.87-.6-1.01-.57-1.11-2.12-.87-3.14-.68-.17-1.34-.33-1.97-.48-.15-.07-.27-.25-.34-.54v-.27l.54-1.09c.31-.29.27-.99.82-1.09l2.18-1.09c.15-.13.38-.16.54-.27.24.06.24.15,0,.27Z"/>
    <path class="st20" d="M153.99,33.91c.7.16,1.06.43,1.09.82l-.35.51c-1.21-.57-1.92.05-2.12,1.87-1.51.67-2.84,1.56-3.99,2.68-1.96.96-3.66,2.12-5.09,3.48-.68.03-1.26.18-1.76.43-1.03.24-2.47.22-3.53,0-1.51-.18-3.03-.24-4.57-.16-.38-1.77,2.28-2.81,3.56-1.73,1.17-.45,2.2-1.28,3.09-2.5l.76.02c.47-1.84,1.87-2.94,4.2-3.28.49-.84,1.3-1.45,2.42-1.82,1.81-.07,3.64-.18,5.51-.33.21-.08.59-.02.82,0Z"/>
    <path class="st269" d="M155.08,34.72c.25-.51.85.11,1.09.54.1.08.17.19.27.27.52.68.67,1.24.45,1.67-.13,1.55-.67,2.67-2.39,2.56l-1.32.32c0,1.11-.7,1.8-2.1,2.09l.38.69c.67,0,1.02.2.63.83-3.23.23-6.98.23-10.33,0-.24-.77,1.15-.39,1.35-.77.62-1.19,1.83-1.55,2.86-2.14.74-.42,1.6-.96,2.33-1.45s1.04-1.23,1.97-1.64c3.52-1.56.74.02,2.88-3.25.74-.01,1.35.24,1.93.28Z"/>
    <path class="st19" d="M156.89,37.21c.15,0,.29.03.4.09.15.08.06,2.88-.04,3.41-.23,1.58-2,3.46-3.81,3.46l-.27-.2c-.38-.1-.74-.19-1.09-.27.12-.57-2.57-.06-3.25-.5.2-.48.58-.56.9-.52.21.03.42.29.71.36.31.11.68.17.43-.15-.31-.39-.43-.79-.33-1.01.2-.42,1.23-.2,2.02-1.1.26-.3-.24-.81-.06-1.08,1.04-.26,2.12-.64,3.02-.49.66-.65.65-1.58,1.35-1.99Z"/>
    <path class="st173" d="M153.17,33.91c-4.01.28-8,.28-11.96,0-6.31.22-13.23.27-19.58,0-.24-.08-.23-.17,0-.27l31.54.27Z"/>
    <path class="st7" d="M134.14,44.24v29.91c-.1.03-.27-.1-.27-.29v-10.04c-.24-6.25-.23-12.79,0-19.03,0-.29-.06-.57-.02-.86l.29.04c.24.08.23.17,0,.27Z"/>
    <path class="st151" d="M122.18,89.38c.23,3.32.23,7.16,0,10.6,0,3,.27,6.06-.27,8.97-.52-.04-.01-.52-.01-.88v-27.4c.09-.24.18-.23.28,0,.23,2.74.22,5.91,0,8.7Z"/>
    <path class="st126" d="M122.18,76.32c.24,1.31.23,3.02,0,4.35h-.27v-25.56c.09-.01.18.02.27,0,.24,6.96.23,14.28,0,21.21Z"/>
    <path class="st243" d="M153.17,43.97c.12,0,.23.1.27.2l-19.31.07v-.27c6.28-.26,12.77-.22,19.03,0Z"/>
    <path class="st180" d="M121.63,43.97v.27h-19.03c-.24-.05-.23-.14,0-.27,6.24-.24,12.82-.23,19.03,0Z"/>
    <path class="st318" d="M121.63,33.64v.27c-6.09.38-12.83.19-19.03,0,.03-.07-.01-.19,0-.27h19.03Z"/>
    <path class="st134" d="M157.8,37.44l-.27,2.72c-.1.16-.04.45-.27.54-.77-1.14.62-.12-.37-3.5-.16-.56-.47-1.08-.45-1.67.54.45,1.09,1.25,1.36,1.9Z"/>
    <path class="st116" d="M98.86,37.99c.76.22.73,1.06-.02,1.27.32-.05.48.44.25.67.79.02.73.9-.03,1.05.49.6.44.95-.27.54l-.54-1.36c-.07-.59-.07-1.13,0-1.63l.27-1.09c.21.08.34.32.34.54Z"/>
    <path class="st33" d="M103.14,43.7c-.07.11-.25.2-.54.27-.41.05-.87-.04-1.36-.27-.31-.12-.6-.29-.82-.54-.29-.15-.55-.29-.27-.54-.24-1.16.63-.52,1.22,0,1.16.07,1.75.43,1.77,1.08Z"/>
    <path class="st262" d="M156.17,35.27c-.33-.24-.67-.52-1.09-.54l-1.09-.82c.87.08,2.1.39,2.18,1.36Z"/>
    <path class="st29" d="M102.06,33.91c-.6.54-1.38.91-2.18,1.09.45-.71,1.35-1.05,2.18-1.09Z"/>
    <path class="st33" d="M99.89,42.34c-.26.28-.41.03-.55-.27-.25-.11-.44-.28-.54-.54.31,0,.27-.32.27-.54.92-.52,1.76.84.82,1.36Z"/>
    <path class="st250" d="M157.52,40.16v-2.19c0-.28.05-.55.27-.53.08.87.17,2-.27,2.72Z"/>
    <path class="st113" d="M99.89,42.34c.42-.35.57-.2.27.27.12.16.16.38.27.54-.6-.03-1.1-.47-1.09-1.09.18.08.38.17.55.27Z"/>
    <path class="st233" d="M102.6,43.97c-.02.09.01.18,0,.27-.49,0-1-.25-1.36-.54.47-.03.95.02,1.36.27Z"/>
    <path class="st263" d="M98.52,37.17c-.17-.57.23-.79.54-1.09-.02.43-.2.83-.54,1.09Z"/>
    <path class="st189" d="M98.52,37.44c0,.37.14.91-.27,1.09v-.27c-.04-.39-.02-.81.27-1.09v.27Z"/>
    <path class="st100" d="M141.21,34.18c.75-.23,1.94-.22,2.72,0,.43.22.93.22,1.36,0,.63-.21,1.76-.22,2.38.06-.03.26-.04.52-.14.69-.2.31-.72.31-1.07.43-.52.17-.5.99-1,1.2-1.08.46-2.3.54-3.21,1.35-.59.52-.24,1.41-1.03,2.06-.15.12-.46-.18-.75-.19-.91.96-1.65,2.52-3.16,2.6-.56.03-1.16-.81-1.77-.44s-1.49.46-1.49,1.37c.76.45,3.95-.33,4.19.4-1.43.09-2.88.16-4.37.23-1.41-.77-.44,3.03-.81,4.38-.66.17-1.2-.21-1.68.02-.28.13-.33.7-.6.71-.37.02-.81-.42-1.19-.06-.21.2.4.45.4.62,0,.96-1.57.24-2.31,1.23-.21.28-.66.51-.95.42s-.43-.55-.64-.92c-.69.47-1.2,1.15-2.19,1.06-.21.55.1,1.21-.27,1.6-.41.42-.84-.19-.8-.46.06-.34.34-.53.71-.8-.18-.22-.8-.12-.99-.45-.22-1.02-.09-2.01-.09-2.95.07-2.07,1.62-2.87,3.39-3.67.85-1.76,1.93-2.54,3.81-2.74.71-1.34,1.45-1.87,2.2-1.58.43-1.01.96-1.11,1.92-.74.14-1.36,1.27-2.24,2.54-2.61,1.76-.12,2.58-.62,2.45-1.5-1.53-.17-2.16-.6-1.89-1.31,1.31-.24,3.02-.23,4.35,0Z"/>
    <path class="st48" d="M136.86,34.18c.27.94,2.43.09,2.49,1.51.11,2.32-3.63.78-4.94,3.41-.14.28-.03.71-.34.94-.5.37-1.19-.41-1.48-.01-.34.46.4,1.81-.25,1.43-.48-.28-.61-.8-1.32-.78-.27,1.36-1.39,2.34-2.86,1.95-3.19,3.15-.64,1.82-3.26,3.07-.63.3-1.23,1.11-1.95,1.4-.3.12.01,1.24-.5,1.23v-4.36c0-.24-.17-.27-.27-.27-1.39.23-3.01.23-4.35,0-1.02-.24-2.25-.23-3.26,0-.07.22-.4.2-.54,0-.68-.95.04-1.34,2.15-1.17.93-.82,1.55-.8,1.85.07.73-1.24,2.35-1.45,3.68-1.56.38-.93,1.16-1.62,2.32-2.08,1.17-.23,2.27-.61,3.29-1.14.71.34,1.38.08,2-.79,1.45-.4,2.03-.73,2.57-2.16.79-.21,1-.44.62-.68,1.31-.24,3.02-.23,4.35,0Z"/>
    <path class="st258" d="M122.45,76.32c-.08.24-.17.23-.27,0v-21.21c.11-.03.27.06.27.29v20.92Z"/>
    <path class="st76" d="M103.14,43.7c.02-.81,1.21-.75,1.36,0,.51-.23,1.12-.24,1.63,0,.02-.78.63-.74.82,0,.51-.23,1.12-.24,1.63,0l.31-.54h4.74l.39.54h.54c1.02-.24,2.25-.23,3.26,0h4.35c-.05.25-.33.27-.54.27h-19.03c.05-.26.33-.27.54-.27Z"/>
    <path class="st207" d="M133.87,63.82c-.1.03-.27-.09-.27-.3v-18.43c0-.21.17-.33.27-.3v19.03Z"/>
    <path class="st159" d="M122.45,89.38c-.08.24-.17.23-.27,0v-13.05h.27v13.05Z"/>
    <path class="st64" d="M122.18,99.98v-10.6h.27v10.31c0,.19-.17.32-.27.29Z"/>
    <path class="st307" d="M130.33,34.18c.62.23,1.29.23,1.9,0,.08-.18.17-.18.27,0,.1.13.25.15.6.45-1.02.24-1.05,1.4-1.6,2.01-.6.65-1.94.49-2.49,1.35-.17.26-.53.48-.82.57-.2.06-.43-.17-.8-.27-.94.91-2.42.67-3.37,1.26l-1.52.95c-.34.21-.23.87-.39,1.31-.82-.61-3.37.39-3.48.79-.1.36-.43.61-.89.56-.27-.03-.17-.39-.47-.99-.85,1.95-3.15-.03-3.26,1.52h-5.44c-.52-.23-1.11-.23-1.63,0h-.82c-.52-.23-1.11-.23-1.63,0h-1.36c-.73-.52-1.85-.2-2.53-.98l-.32-.37c-.05-.05-.19.16-.13.26-.06-.08-.18-.22-.27-.27.04-.59-.34-1.05-.82-1.36l.03-1.05c.11-.41.02-.63-.25-.67-.04-.42.02-.85.02-1.27,1.37-.79.89-.13,2.79.05-.59.77-.53,2.41.23,3.1,1.77-.41,4.07,1.92,5.64-.88.55.96,1,1.53,1.99,1.52-.07-.67-.06-1.97.42-2.36,1.11-.72.53,3.43,1.74,1.83.09-.12.06-.25.04-.54,0-.39.28-.56.49-.55.85.03.34,1.29,1.12,1,.28-.11.72-1,1.14-1.21.27-.14.63.44.88.36.66-.19.46-1.05.43-1.53,1.49.1-.64-1.69.32-1.5.69.14.79.85,1.28.79.22-.03.5-.46.75-.46.68.01,1.24.18,1.61-.58.17-.36-.08-.72-.34-1.5.97.04,1.74.27,2.31.82-.22-.44-.07-1.08-.13-1.5-.73-.7-1.93.02-2.65-.07-1.32-.17-2.5-.68-3.87-.18-.89.32-2.15.21-2.85-.33.03-.11.05-.19.08-.19,5.97-.08,12.17-.11,18.07.08Z"/>
    <path class="st292" d="M121.63,33.91h19.58c.24.08.23.17,0,.27h-8.97c-.6.24-1.3.24-1.9,0l-18.15.11c-3.04.02-6.12-.35-9.31-.05-.19.02-.3-.27-.28-.34h19.03Z"/>
    <path class="st43" d="M138.22,43.7h13.87c.37,0,.91-.14,1.09.27h-19.03c-.1,0-.2-.02-.29-.04,1.38-.47,2.92-.23,4.37-.23Z"/>
    <path class="st78" d="M153.17,33.91c-1.74.65-3.68.37-5.51.33l-2.38-.06c-.42.23-.94.23-1.36,0h-2.72v-.27h11.96Z"/>
    <path class="st33" d="M99.1,39.93c-.09-.21-.23-.43-.25-.67.15-.12.5-.26.47-.04-.04.25.21.39.23.54.01.12-.38.15-.44.17Z"/>
    <path class="st20" d="M145.29,34.18c-.23.45-1.12.45-1.36,0,.44,0,.92-.01,1.36,0Z"/>
    <path class="st307" d="M117.83,43.7h-3.26c-.71-.4,3.97-.4,3.26,0Z"/>
    <path class="st33" d="M106.13,43.7h-1.63c.34-.46,1.29-.46,1.63,0Z"/>
    <path class="st33" d="M108.58,43.7h-1.63c.34-.46,1.29-.46,1.63,0Z"/>
    <path class="st48" d="M132.24,34.18c-.44.47-1.47.47-1.9,0h1.9Z"/>
  </g>
  <g>
    <g>
      <path class="st246" d="M182.27,102.43c-.09,3.63-.18,7.26-.27,10.88.23,3.41.23,7.37,0,10.88-.09,5.08-.18,10.16-.27,15.23.23,3.59.23,7.74,0,11.42.09,8.28.18,16.62.27,25.02.1-.08.17,0,.24.27,0,2.75-2.95,4.46-5.13,4.89-.68-.04-1.32-.14-1.9-.27-.6-.06-1.24-.24-1.9-.54-1.81-.97-3.14-2.7-3.26-4.62.08-.24.17-.23.27,0,.09-8.43.18-16.86.27-25.29-.09-4.49-.18-9.02-.27-13.6-.23-.35-.21-1.22,0-1.63-.23-2.74-.22-5.91,0-8.7-.09-6.49-.18-13.01-.27-19.58l.03-17.57c.44-3,2.64-5.09,5.68-5.32,3.23-.24,5.91,1.74,6.5,5.04l.02,13.5Z"/>
      <path class="st149" d="M176.83,192.7c.32.22.55.48.82.54.2.22.47.53.27.82-.23,4.3-.23,8.73.02,13.05-.45,1.29-1.79,1.64-2.71,1.08l-1.12-.53c-.07-.27-.47-.37-.54-.82v-.54c.11-4.17.2-8.34.27-12.51v-.27c.32-.5.68-.67,1.09-.82.6-.24,1.3-.24,1.9,0Z"/>
      <path class="st275" d="M182.27,137.23c-.08.24-.17.23-.27,0-.23-4.17-.23-8.79,0-13.05v-10.88c.08-.24.17-.23.27,0v23.93Z"/>
      <path class="st88" d="M170.3,150.28c.24,7.03.23,14.66,0,21.75-.08.24-.17.23-.27,0v-23.93c.08-.24.17-.23.27,0,.23.57.22,1.58,0,2.18Z"/>
      <path class="st46" d="M182.23,176.11c-.1-.04-.24-.15-.24-.27-.24-6.96-.23-14.28,0-21.21.08-.24.17-.23.27,0l-.03,21.48Z"/>
      <path class="st181" d="M170.3,126.35c-.08.24-.17.23-.27,0v-19.58c.1-.03.27.09.27.3v19.28Z"/>
      <path class="st145" d="M182.27,154.63h-.27c-.24-1.09-.22-2.66,0-3.81-.23-3.59-.23-7.74,0-11.42-.23-.57-.22-1.58,0-2.18h.27v17.4Z"/>
      <path class="st47" d="M177.92,194.87c.09,3.88.18,7.78.27,11.69-.07.27-.21.42-.25.54-.11.04-.29-.09-.29-.29v-12.47c0-.2.17-.32.27-.29.26.16.19.62,0,.82Z"/>
      <path class="st234" d="M170.3,136.69c.23,3.72.23,7.72,0,11.42h-.27v-13.05c.08-.24.17-.23.27,0v1.63Z"/>
      <path class="st42" d="M173.57,206.29v.54c-.63-4-.09-8.15-.27-12.24.08-.24.17-.23.27,0,.1.02.18.03.18.05.04,3.85,0,7.83-.18,11.64Z"/>
      <path class="st86" d="M178.19,206.57c-.23-3.86-.23-7.89,0-11.69-.23-.07-.19-.39,0-.54.45,4,.46,8.24,0,12.24Z"/>
      <path class="st320" d="M182.27,113.3h-.27v-10.59c0-.19.17-.32.27-.29v10.88Z"/>
      <rect class="st72" x="170.03" y="126.35" width=".27" height="8.7"/>
      <path class="st336" d="M170.3,175.57h-.27c-.08-1.17,0-2.36,0-3.53h.27c.24,1.03.22,2.44,0,3.53Z"/>
      <path class="st295" d="M175.2,180.74c.24.08.23.17,0,.27-.83-.07-1.4-.54-1.9-.82.7-.03,1.3.27,1.9.54Z"/>
      <path class="st98" d="M176.83,192.7h-1.9c.44-.47,1.47-.47,1.9,0Z"/>
      <path class="st179" d="M177.1,181.01c-.56.11-1.34.05-1.9,0v-.27c.57.26,1.53-.4,1.9.27Z"/>
      <path class="st293" d="M178.19,194.33v.54c-.08.24-.17.23-.27,0-.01-.26.06-.57,0-.82-.07-.27-.28-.52-.27-.82.62.16.5.73.54,1.09Z"/>
      <path class="st286" d="M175.23,208.19c-.56-.34-.93.12-1.12-.53.43.04.85.19,1.12.53Z"/>
      <path class="st310" d="M170.3,175.57v-25.29c.08-.24.17-.23.27,0v24.98c0,.22-.17.34-.27.31Z"/>
      <path class="st237" d="M182,154.63v21.21c-.1.03-.27-.09-.27-.31v-24.71c.08-.24.17-.23.27,0v3.81Z"/>
      <path class="st231" d="M182,137.23v2.18c-.08.24-.17.23-.27,0v-14.93c0-.2.17-.33.27-.3v13.05Z"/>
      <path class="st281" d="M170.58,150.28h-.27v-13.6c.1-.03.27.1.27.29v13.3Z"/>
      <rect class="st249" x="181.72" y="139.41" width=".27" height="11.42"/>
      <path class="st144" d="M173.57,206.29v-11.69c.14-.25.22-.53.27-.82.5.23.05.69.04,1.14l-.06,11.08c0,.2-.14.32-.26.29Z"/>
      <path class="st1" d="M178.19,206.57c-.64-3.79-.09-7.77-.27-11.69h.27v11.69Z"/>
    </g>
    <g>
      <path class="st188" d="M253.78,127.99c.58.66,1.04,1.55,1.09,2.45l-.27,3.26c-.34,1.08-.66,2.27-1.63,2.99l-1.09.82c-.52.96-1.76.83-2.72,1.18l-.27-.09c-.7-.23-1.47-.23-2.18,0,.12.09.03.16-.27.22-1.23-.06-2-1.12-2.99-1.58-.16-.08-.16-.17,0-.27-2.33-2.04-2.71-3.98-2.31-6.97.03-.2.21-.21.44-.1.9.61,1.76,1.29,2.57,2.04,1.21-1.58,2.42-2.1,3.63-1.54.76-.93,1.45-1.37,2.67-1.23.51-.84,1.09-1.13,1.75-.86-.59-1.65-.44-2.19.45-1.62.61.16.97.74,1.14,1.31Z"/>
      <path class="st129" d="M246.17,124.72c1.26-.2,2.52-.2,3.81,0,1.61,1.15,1.45.55,2.67,1.95-.12.04-.21.21-.52.34.59.39.69,1.02.56,1.77.37-.07.65-.35.85-.2.45.37.49,1.38.53,1.68.03.19-.27.08-.47-.04-.16-.1-.19-.2-.25-.53-.36-.08-.67-.07-.98-.17-.33-.11-.36-.52-.57-1.02-.46.34-.74.81-1.16,1.23l-1.14-.02c-.6,0-1.12,1.1-1.77,1.33-.28-.02-.6-.55-.91-.49-1.53.28-1.64,2.07-3.02,1.94-.83-.93-2.51-1.93-2.23-2.6-.05-.36-.06-.81-.03-1.36v-.27c.2-.19.26-.67.54-.82.44-.63.99-1.17,1.63-1.63l1.63-.82c.24-.07.54-.3.82-.27Z"/>
      <path class="st87" d="M241.57,129.89c-.72,1.06-.19,2.38-.08,3.69.12,1.43,1.4,2.24,1.95,3.38-.51-.15-.96-.51-1.36-1.09-.79-1.12-1.5-2.07-1.36-3.53v-2.18c.13-.15.04-.41.27-.54.12-.42.3-.79.54-1.09.34.25.27,1,.03,1.36Z"/>
      <path class="st251" d="M249.97,124.72c1.21.28-4.76-.08-3.81,0,1.14-.69,2.55-.32,3.81,0Z"/>
      <path class="st314" d="M254.59,133.7c-.25,1.31.06-4.7.27-3.26.07,1.14.07,2.2-.27,3.26Z"/>
      <path class="st274" d="M243.72,125.81c-.42.65-.98,1.22-1.63,1.63.07-.92.95-1.28,1.63-1.63Z"/>
      <path class="st291" d="M248.88,138.59l.27.09c-.87.32-1.78.17-2.72.13.05-.09.16-.22.27-.22.7-.24,1.48-.24,2.18,0Z"/>
      <path class="st136" d="M243.45,136.96v.27c-.88-.41-.84-.63-1.36-1.36l1.36,1.09Z"/>
      <path class="st288" d="M245.35,125c-.4.49-1.03.69-1.63.82.47-.24.87-1.09,1.63-.82Z"/>
      <path class="st34" d="M253.78,127.99l-1.14-1.31c.35-.12.68.09.89.34.23.28.28.63.25.97Z"/>
      <path class="st157" d="M218.43,120.64c-.08.1-.18.18-.27.27.25-.4.42-1.47.82-1.63-.18.4-.23.99-.54,1.36Z"/>
      <path class="st213" d="M252.96,136.69c-.33.24-.53.89-1.09.82.19-.46.58-.82,1.09-.82Z"/>
      <path class="st138" d="M248.88,138.59h-2.18c.53-.47,1.65-.47,2.18,0Z"/>
      <g>
        <path class="st97" d="M225.77,117.38c.29-.05.66.04,1.09.27.72.8,1.82,1.14,2.18,2.18.21.44.21.71,0,.82.35.67.35,1.03,0,1.09l.24.21c0,1.57-.69,2.61-2.07,3.1-.32,1.08-.85,1.71-1.6,1.9-1.27-.32-2.41-.2-3.43.38-.36,1.39-1.06,1.86-2.12,1.41-.67.87-1.21,1.07-1.61.61-.24-2.75-.17-5.85,0-8.7l.54-1.36c.31-.48.67-.84,1.09-1.09.04-.11.21-.17.27-.27l1.09-.54c.49-.17.95-.26,1.36-.27.96.16,2.08.28,2.99.27Z"/>
        <path class="st323" d="M229.58,142.94c-.67,1.96-2.09,3.43-4.08,3.87l-.27-.06c-.89-.24-1.82-.24-2.72,0-.32,0-.69-.1-1.09-.27-1.04-.38-1.82-.98-2.45-1.9l-.82-1.63c-.16-.15-.29-.3-.27-.54.26-.19.45-.45.57-.8l.83-2.1c1.72-.52,3.51-.71,5.36-.57.81-.15,1.44-.73,1.87-1.74l.64-.21c.31-.73.71-1.4,1.16-2.06.09-.13.43.03.63.2.16.04.29.07.3.12.17,2.41.16,5.15.03,7.5l.3.2Z"/>
        <path class="st2" d="M229.81,142.13c0,.24-.15.58-.23.82-.19-.02-.33.32-.44.24-.23-.15-.03-.6-.03-.77l-.16-7.29-.54-.65.14-4.46.49-.67c-.13,0-.25-.02-.36-.07-.25-.12.02-4.85.11-5.46.07-.5.38-2.08.8-1.54.09,6.61.17,13.22.23,19.85Z"/>
        <path class="st322" d="M218.43,129.35c.21.02.53.08.55.23.06.53.19,5.1.07,5.34-.11.21-.32.32-.54.39.63,1.61.62,3.6.41,5.44-.04.33-.25.61-.46.85,0,.2.01.41-.08.61-.08.17-.3.23-.49.19,0-.09,0-.18,0-.27.09-6.69.18-13.39.27-20.12-.26-.11-.26-.47,0-1.09l.27-.27c.47.04.05.53.05.86l-.05,7.84Z"/>
        <path class="st55" d="M229.81,142.13c-.54-6.56-.08-13.23-.23-19.85-.25-.07-.24-.16,0-.27-.38-.43-.22-.59.27-.27l-.04,20.39Z"/>
        <path class="st119" d="M217.89,142.13v-.27c-.2-.49-.27-1.2,0-1.63-.24-5.15-.23-10.8,0-16.04-.23-.6-.35-1.93.27-2.18v19.82c0,.21-.17.33-.27.3Z"/>
        <path class="st143" d="M217.89,140.22c-.08.24-.17.23-.27,0v-16.04c.08-.24.17-.23.27,0v16.04Z"/>
        <path class="st191" d="M226.86,117.65c-.4.05-.73-.15-1.09-.27l-2.99-.27c-.42.02-.88.47-1.36.27,1.61-.9,3.97-.86,5.44.27Z"/>
        <path class="st18" d="M225.23,146.75l.27.06c-.93.2-1.75.19-2.72.21-.24-.08-.23-.17,0-.27.77-.31,1.67-.19,2.45,0Z"/>
        <path class="st124" d="M218.97,144.57c-.34-.49-1.05-.83-.82-1.63.46.42.71,1.02.82,1.63Z"/>
        <path class="st166" d="M229.58,121.46c-.25.25-.43-.02-.54-.82v-.82c.17.5.87.93.54,1.63Z"/>
        <path class="st2" d="M229.58,121.46c.07.1.21.16.27.27-.12.04-.24.14-.27.27-.44.64-.51.44-.55-.27.03-.28,0-.77,0-1.09l.54.82Z"/>
        <path class="st79" d="M220.06,118.2c-.19.51-.71.78-1.09,1.09.4-.16.21-1.42,1.09-1.09Z"/>
        <path class="st52" d="M221.42,117.38c-.17.1-1.27,1.31-1.09.54.04-.63.76-.36,1.09-.54Z"/>
        <path class="st264" d="M222.51,146.75h.27v.27c-.68.02-.85-.36-1.36-.54.38,0,.76.07,1.09.27Z"/>
        <path class="st32" d="M229.58,122c-.02.08,0,.19,0,.27-.18-.02-.4.24-.36.53.3,1.96-.22,6.22-.19,6.54-.26.42-.56.84-.89,1.24-.98.5-1.65,1.31-2.02,2.43-1.25.29-2.49.67-3.73,1.15-.51,1.13-1.3,1.61-2.38,1.44-.47,2.01-1.47,1.47-1.51-.3l-.07-5.96c.61-.1.88-.96,1.5-1.13.39-.1,1.07.37,1.19.11l.56-1.23c.21-.46,1.29-.73,1.86-.86.68-.16,2.23.59,2.64-.17.73-3.12,2.52-.67,2.85-4.33l.55.27Z"/>
        <path class="st176" d="M225.77,117.38c1.43.49-4.35-.18-2.99-.27,1-.06,2.04-.06,2.99.27Z"/>
        <path class="st141" d="M229.04,129.35c.22,1.91-.13,3.85-.08,5.77-.26-.2-1.62,2.63-1.59,2.82-.23-.27-.41-.53-.55-.38-.08.1-.15.29-.21.42-1.2,2.74-3.28.63-5.91,1.84-.34.16-.71-.05-1.09-.04.04.92-.45,1.51-1.15,1.83-.15-2.1.08-4.2.05-6.29.38.02.02.75.4.99.52.33.63-.55.43-.99.62-.42,1.28-.19,2.06-.31.13-1.4,1.07-1.49,2.17-1.71.73-.15,1.39-1.07,2.36-.66l.42-1.63c2.49-.87,1.32-1.95,2.69-1.65Z"/>
        <path class="st319" d="M225.23,146.75h-2.72c.72-.47,2-.47,2.72,0Z"/>
      </g>
      <g>
        <path class="st276" d="M202.66,104.33c1.07.56,2.38,1.46,2.44,2.72.46.73.55,1.36.28,1.9-.14.67-.23,1.37-.26,2.09-.82.05-1.63.25-2.43.6-.89-.15-1.73-.07-2.52.21-1.11,1.61-3.22,2.27-4.88,1.59-.45-.97-.7-2.02-.77-3.14-.13-.88-.13-1.79,0-2.72.04-.63.31-1.27.82-1.9.2-.14.23-.48.54-.54.62-.65,1.26-.93,1.9-.82,1.55-.57,3.19-.57,4.89,0Z"/>
        <path class="st120" d="M205.65,156.54c.09.89-.69,1.5-1.09,2.18l-1.09.88c-.53.38-.87.81-1.63.82l-1.19.17c-.74.56-1.74.1-2.62.03-.23-.4-.5-.58-.82-.54-.33-.11-.66-.22-.82-.54-.54-.36-.99-.81-1.36-1.36l-.54-1.09c-.13-.21-.37-.51-.27-.82-.17-.18-.22-.42,0-.54.11-1.39.2-2.75.27-4.08.31-.5.41-.42.71-.01l.2,2.46c2.25-.29,4.48-.53,6.71-.71.14-.63.54-.95.69-.24.19-.49.7-.78,1.53-.85,1.11.83.34.77-.31-.43-.51-.95.23-1.45,1.09-1.84l.34-.18c.07,1.84.08,3.68.02,5.53-.15.57-.09.96.18,1.17Z"/>
        <path class="st259" d="M205.92,143.48c-.08.24-.17.23-.27,0-.25-2.03-.18-4.43,0-6.53-.3-4.85-.2-10.08,0-14.95-.23-2.74-.22-5.91,0-8.7-.15-1.47-.29-3.45-.15-5.05,0-.02.19.05.42.15v35.08Z"/>
        <path class="st153" d="M205.65,143.48c.23,3.91.23,8.44,0,12.51,0,.18-.02.36,0,.54-.24.04-.48.02-.54-.16-.13-.38.17-.7.18-1.03l.1-5.05c0-.18-.19-.33-.28-.29-.28-.35-.45-.88-.5-1.6.11-2.98.37-5.98.77-9-.78-.23-.7-2.15,0-2.45.08-.24.17-.23.27,0v6.53Z"/>
        <path class="st8" d="M197.77,77.41c.24,4.01.27,8.23,0,12.24-.09-.01-.18,0-.27,0,.18-4.36-.36-8.78.27-13.05v.82Z"/>
        <path class="st308" d="M205.65,155.99v-12.51h.27v12.22c0,.19-.17.32-.27.29Z"/>
        <path class="st184" d="M194.5,110.31c.45,2.19.81,4.65.54,6.95l-.54.39c-.07.24-.16.24-.27,0v-8.41c0-.19-.17-.32-.27-.29,0-.19.09-.45.27-.54.05-.34.14-.61.27-.82.56-.04,0,1.08,0,2.72Z"/>
        <path class="st160" d="M205.92,108.41c-.21-.02-.28.25-.28.53v4.36c-.07.24-.16.23-.27,0l-.54-.31c0-1.38.18-2.73.54-4.04,0-.62-.35-1.27-.28-1.9.26.35.8.88.82,1.36Z"/>
        <path class="st168" d="M201.57,103.79c.29.3.73.36,1.09.54.02.29-.28.27-.42.27-.26,0-.59-.26-.84-.36-1.26-.5-2.47-.04-3.64.09-.22-.13-.04-.31.54-.54,1.1-.23,2.18-.23,3.26,0Z"/>
        <path class="st44" d="M198.31,103.79l-.54.54c-.74.08-1.19.68-1.9.82.43-1,1.54-1.11,2.45-1.36Z"/>
        <path class="st185" d="M194.5,107.59c-.1.26.07.65-.27.82-.1-1.03.23-2.13,1.09-2.72-.06.71-.57,1.25-.82,1.9Z"/>
        <path class="st326" d="M201.57,103.79h-3.26c.99-.28,2.31-.61,3.26,0Z"/>
        <path class="st37" d="M196.41,159.53c-.75.02-1.16-.81-1.36-1.36.56.33,1.03.8,1.36,1.36Z"/>
        <path class="st268" d="M204.56,158.71c-.32.54-.63.56-1.09.88.15-.5.55-.89,1.09-.88Z"/>
        <path class="st210" d="M198.04,160.61c-.36-.03-.53-.45-.82-.54.03-.44.35-.12.5-.05.28.13.36.37.32.59Z"/>
        <path class="st61" d="M201.84,160.41c-.31,0-.81.37-1.19.17,0-.55.83-.14,1.19-.17Z"/>
        <path class="st203" d="M205.38,113.3c.18.08.18.17,0,.27-.13.88-.21,1.79-.24,2.72-.71.22-1.07.63-1.07,1.21-1.33.95-3.09,1.35-4.76,1.58-.6.44-3.43,1.83-3.95,1.78-.33-.04-.52-.26-.55-.57-.08-.9-.18-1.78-.3-2.63v-7.34c.52.15.15.87.35,1.33.25.57.86.85.8,1.71,2.49-.86,1.47.84,4.21-1.93,2.66-1.09,1.77.59,4.31-1.05.32.18.53.52.68.31.5-.69-.04-1.6.53-1.72v4.35Z"/>
        <path class="st83" d="M205.11,150.01c0,.21.05.57-.09.87-.08.16-.33.06-.68,0,.03.22.15.57.14.74s.25.17.56.22c.08.43.15.81-.02,1.44-.21-.18-.34-.42-.61-.49.22.06-1.82.55-1.57.32-.31.28-.15.77-.2,1.3-.48-.38-.77-.61-1.27-.51-2.13.41-4.26.52-6.43.8-.37-.85.13-3.19-.42-3.05-.23-2.74-.22-5.91,0-8.7.75-.24,1.02.45.84,2.07.79.59,1.76.49,2.89-.29.48.65.95.97,1.4.96,1.31-1.29,2.72-1.97,4.23-2.05.61-1.15.88-2.49.79-4.03.06-.35.38-.33.73-.2-.05,1.93.1,3.91-.07,5.96-.1,1.25-.45,2.37.02,3.62.13.34-.22.76-.22,1.02Z"/>
        <path class="st183" d="M194.5,142.94v8.7c0,1.36.25,2.82-.27,4.08v-18.22c.08-.24.17-.23.27,0l.54.47v4.57l-.54.39Z"/>
        <g>
          <path class="st272" d="M201.03,75.24c.64.47,1.18.9,1.45,1.63.09.43.06.79-.09,1.09-.1,3-.19,5.99-.27,8.97-.6.01-.92-.52-.96-1.61l-2.63.22-.45-.56c-.12-2.48-.22-5-.31-7.57v-.82c.07-.49.26-.51.54-.82.47-.39.92-.58,1.36-.54.36-.3.94-.16,1.36,0Z"/>
          <path class="st306" d="M202.12,86.93c.09,1.04.17,2.14.24,3.29.03-.23.1-.21.22,0l-.19.51-1.09.82c-.77.28-1.59.28-2.45,0-.62-.43-1.39-1.05-1.36-1.9.07-.24.16-.23.27,0,.11-1.57.21-3.13.31-4.66,1.22.06,2.33-.11,3.79-.31-.23,1,.06,1.61.25,2.26Z"/>
          <path class="st135" d="M202.58,90.23c-.07.02-.14.01-.22,0-.18-3.86-.22-7.92.03-11.72.08-.24.17-.23.27,0l-.08,11.73Z"/>
          <path class="st214" d="M201.3,91.55c-.74.63-1.66.55-2.45,0,.77-.28,1.63.19,2.45,0Z"/>
          <path class="st199" d="M199.67,74.96c.24.08.23.17,0,.27-.46.14-.84.56-1.36.54.37-.41.71-.85,1.36-.82Z"/>
          <path class="st13" d="M202.66,78.5h-.27c-.23-.06-.17-.36,0-.54,0-.36.01-.73.09-1.09.2.56.19,1.02.18,1.63Z"/>
          <path class="st224" d="M202.39,90.74c-.21.57-.78.55-1.09.82.19-.46.58-.82,1.09-.82Z"/>
          <path class="st74" d="M201.03,75.24c-.43.09-.94-.12-1.36,0v-.27c.45.02,1.1-.19,1.36.27Z"/>
          <path class="st317" d="M202.39,78.5l-.03,11.72c-.69-.96.06-2.24-.24-3.29v-8.68c0-.19.17-.32.27-.29v.54Z"/>
          <path class="st334" d="M198.08,84.99l-.02,4.14c0,.29-.09.56-.3.53v-12.24c.2-.02.28.25.28.53l.03,7.04Z"/>
        </g>
        <path class="st75" d="M205.65,136.96h-.27l-.6-.42.11-2.48c-.19-.65-.12-1.13.22-1.45-.76.02-.73-.34,0-.54l.27-1.9c-.23-.09-.23-.18,0-.27-.23-.41-.23-.94,0-1.36l-.54-.24c-.13-2.15.15-4.24.54-6.29.08-.24.17-.23.27,0v14.95Z"/>
        <path class="st156" d="M205.65,122h-.27c-.26-.13-.15-.76,0-1.09l-.54-.24c-.08-2.42.1-4.79.54-7.1v-.27h.27v8.7Z"/>
        <path class="st212" d="M194.5,126.35l.17,1.61c.29,0,.35.1.38.31.21,1.59.12,4.7.03,6.37.18.96,0,1.55-.54,1.77.12.36.28.88-.05,1.09h-.27v-19.85c.09,0,.18.01.27,0,.5,2.72.65,5.48.54,8.31l-.54.39Z"/>
        <path class="st273" d="M205.38,136.96c.14.75.02,1.68,0,2.45-.78.72.5,3.2-1.55,5.06l-.63-.59c-.2.74-1.06.47-1.44.72-.08.05-1.74,2.28-2.93,1.49-.31-.2-.33-.58-.62-.96-.71.87-2.32,1.16-3.24.34-.46-.41.12-2.61-.47-2.53v-5.44l.05-1.09c.4-.12.71.04.92.48.24-.1.5-.21.76-.2,1.6.03,2.76.02,3.76-1.44.69-.5,2.84-1.39,3.47-.8.23-1.8.77-2.41,1.63-1.84.71,1.33,0,2.89.27,4.35Z"/>
        <path class="st315" d="M205.38,120.92c-.07,1.39-.25,2.77-.53,4.14-1.06.43-1.91,1-2.55,1.73-1.54.09-2.31.42-3.63,1.3-1.54,1.01-4.35,1.4-3.96-1.05l-.22-.68v-8.7c.65-.11-.21,1.75.88,2.76.75-.78,2.05-.62,2.78-1.24.62-.53,1.03-.7,1.87-.79l1.47-.16c.49-.59,1.09-.53,1.9-.71.33-.1.19-.92.38-1.13.28-.3.83-.23,1.11-.4.5-.32-.13-2.4.49-2.4v7.34Z"/>
        <path class="st163" d="M205.38,122v6.53c-.22.43-.22.93,0,1.36,0,.09.01.18,0,.27l-.27,1.9c-.02.14-.05.42,0,.54l-.93.54c.18.66-.01,1.9-.81,1.84-.33-.02-.5-.56-.74-.37-1.44,1.1-1.48,0-2.87,1.67-.33.4-.8.61-.85,1.33-.4-.34-.41-.6-.73-.69-.2-.06-.49.49-.68.45-.87-.19-1.72-.38-2.41.52-.44-.66-.13-1.16-.55-1.48l-.05-10.06c.49.35.57.9.3,1.72.76-.21,1.43.53,1.96.29l1.48-.68c.83-.38,1.39-.75,2.08-1.21.37-.25,1.56.29,1.84-.31.41-.9,1.07-.78,1.76-1.08,1.72-.76.82-4.23,1.45-4.16v1.09Z"/>
        <path class="st273" d="M205.11,132.06c.09-.63-.28-1.47.27-1.9-.09.63.28,1.47-.27,1.9Z"/>
        <path class="st273" d="M205.38,129.89c-.45-.23-.45-1.12,0-1.36v1.36Z"/>
      </g>
    </g>
  </g>
  <g>
    <path class="st219" d="M109.67,63.82c.22.7.22,1.25,0,1.63-.24,6.77-.23,13.89,0,20.66.08-.24.17-.23.27,0,.23.08.2.63,0,.82-.08.24-.17.23-.27,0-.09,5.9-.18,11.79-.27,17.67.23,3.23.23,7.01,0,10.33.09,3.55.18,7.17.27,10.88.07,1.15.16,2.33.27,3.53.13-.11.22-.02.27.27,0,.96.53,1.78,1.37,2.06.99.34,1.96.05,2.67-.76l12.61-14.3,16.68-18.9c.77-.87,1.32-1.68,2.27-2.45l.05-29.72c0-1.26.64-2.22,1.22-3.19,1-1.68,2.74-2.3,4.78-2.39,2.94-.12,6.13,1.99,6.13,5.3v34.7c0,1.31-1.53,2.45-2.32,3.34l-22.18,24.89c-1.4,1.57-.99,4.08.6,5.54.64.59.92,1.19,1.38,1.89,1.45,2.18,2.91,4.27,4.55,6.29,1.02,1.25,2.13,2.48,2.87,3.9.39.75,1,1.22,1.42,1.86.95,1.45,1.78,2.81,2.95,4.16.8.91,3.94,5.8,5.5,7.54.83.93,1.54,2.1,2.26,3.12l2.05,2.9c.42.59.7,1.85.7,2.55-.09,2.09-.18,4.18-.27,6.25-.24,7.74-.24,15.91,0,23.66.12.16.19.43.23.82-.12,1.06-.87,2.45-1.54,3.3-.83,1.04-2.23,1.42-3.32,1.86-.24-.02-.37-.03-.27-.27-.62-.23-1.29-.23-1.9,0,.24.08.23.17,0,.27-.09-.03-.21-.13-.27-.21l-1.63-.61c-1.42-.62-2.64-2.01-2.99-3.53l.28-.48c-.18-8.94-.24-17.9-.15-26.87l-.13.16c-.08.24-.17.23-.27,0-.25-1.08-1.25-2.04-1.92-2.95l-3.26-4.39c-.39-.53-.63-1.09-1.11-1.6-1.2-1.29-2.11-2.77-3.17-4.2l-4.37-5.94-6.91-9.35c-.7-.94-1.43-.96-2.11-1.48-.77-.46-1.59-.52-2.45-.27-1.41.65-2.48,1.4-3.6,2.69l-6.41,7.37-.05,3.81c-.32-.14-.5-.59-.54-1.36l-.11-.23-.03,8.61.14.32c.23,3.41.23,7.37,0,10.88-.09,3.63-.18,7.26-.27,10.88.21,4.58.31,9.22.28,13.93-.02-.46.07-.39.26.21l-1.13,2.34c-.66,1.37-1.92,1.84-3.22,2.01l-2.45.27c-2.32-.69-4.4-2.51-4.62-4.89-.1-5.37-.19-10.72-.27-16.04v-117.68c0-1.96,1.28-3.22,2.56-4.28.99-.82,1.88-.95,3.16-1,2.64-.11,5.05,1.38,5.7,3.86Z"/>
    <path class="st267" d="M157.8,113.3c-.15,2.9-.2,5.81-.17,8.73l-.21.13c-.4.64-1.25,1.01-2.53,1.1.47,1.63.09,2.35-1.16,2.14-1.22,1.89-3.1,3.81-5.46,4-.83,1.23-1.53,1.57-2.1,1.03-.11-.96-.22-1.96-.34-3.01-.1-.32-.19-.68-.27-1.09.06-.11.15-.22.27-.27l.82-1.09c.11-.25.31-.41.54-.54l1.09-1.36,1.36-1.63c.1-.07.17-.21.27-.27l1.09-1.36.27-.27,1.09-1.36.27-.27,1.09-1.36c.11-.24.3-.44.54-.54l.82-1.09c.8-.89,1.48-2.01,2.45-2.72.53-.35.54.69.27,1.09Z"/>
    <path class="st227" d="M130.33,164.15c.24.34.45.61.82.82.3,1.34,1.64,1.96,1.87,3.24.35.62.45,1.17.31,1.65-.21,1.63-.98,2.59-2.31,2.87-.28,1.32-1.66,1.87-2.79,2.27-.88,1.22-1.93,1.85-3.15,1.89-1.04,1.11-2.11.82-2.59-.54-.28-1.27-.25-3-.03-4.32-.21-.49-.22-1.66.06-2.22.29-.48.93-.73,1.92-.76,1.04-1.06,2.22-1.97,3.54-2.72.41-.74.96-1.21,1.64-1.43-.44-.53-.48-.96-.09-1.3.23-.26.67.21.82.54Z"/>
    <path class="st161" d="M157.52,132.88c-.08,2.33-.97,3.21-2.67,2.65-.65.75-1.37,1.41-2.19,1.99l-1.1-.26c-.49.71-1.15.91-1.95,1.11-2.08.5-2.72-1.39-2.58-1.29.15.11.13.41-.11.43-.39-.22-.71-.64-.82-1.09-.55-1.01-.5-2.44-.27-3.53.08-.24.17-.23.27,0,.73.11.56.99.43,1.56l.94-.11c2.36-1.75,4.88-3.17,7.57-4.27.58-1.48,1.4-2.18,2.44-2.09.24,1.61.25,3.25.03,4.91Z"/>
    <path class="st279" d="M157.52,135.06c.23,1.17.23,2.85-.03,4.06-.11,1.23-1.01,1.16-2.04.87-.59,1.19-1.36,1.87-2.32,2.01-1.27.31-2.25.17-2.95-.42-.15.41-.37.03-.54-.27l-.82-1.09c-.27-.31-.58-.68-.54-1.09-.41-.3-.85-.64-1.09-1.09,0-.16-.24-.37-.27-.54-.01-.21-.1-.45.23-.6.32,1.16,1.03,1.02,1.93.98,2.16-.11,1.92-1.38,2.58-1.15l.89.31,2.01-1.94c.39-.38,1.26.39,1.75-.07,1.54-1.44.4-1.18,1.22-2.16.23.57.22,1.58,0,2.18Z"/>
    <path class="st3" d="M127.89,160.89l.82,1.09c.27.46,1.1.65.82,1.36.24.08.23.17,0,.27.25.66.75.94.93,1.98-1.42-.58-1.52.68-2.11,1.15-1.1.88-2.38,1.32-3.3,2.5-.58.73-1.78.48-2.52.58-.27-1.75-.27-3.63-.06-5.39.07-.73.4-1.16.99-1.27,1.49-.01,2.29-.6,2.41-1.76.55-.14.84-.43.85-.87l.61-.18c.27.05.44.36.58.54Z"/>
    <path class="st299" d="M125.98,158.74c.2-.35.41-.1.54.24.29.45.77.8.78,1.36l-.27,1.01c-.06.24-.61.27-.84.43-.3.21-.04.73-.04,1.12-1.76.91-2.64.34-3.72,1.52-.24-1.31-.23-3.02,0-4.35l.61-.12c.22-1.65,1.88-2.25,2.92-1.21Z"/>
    <path class="st111" d="M110.21,129.62c-.08-.09-.22-.16-.27-.27-.25-9.58-.23-19.57,0-29.09-.23-4.26-.23-9.01,0-13.32v-.82c-.23-1.56-.21-3.56,0-5.17-.19-4.97-.22-10-.07-15.09l.34.14v63.63Z"/>
    <path class="st332" d="M157.52,145.12c.23.08.2.63,0,.82l-.15.51c.49,2.62-1.4,3.27-2.84,1.12-.15.4-.37.03-.54-.27-.33-.32-.59-.7-.82-1.09l-.82-1.09-.82-1.09c-.29-.34-.29-.53,0-.57-.02-.73.41-.8,1.3-.2,1.14-.24,1.86.06,2.02,1.28l1.88-1.37c-.12-.65.09-1.14.77-.77.23.75.22,1.94,0,2.72Z"/>
    <path class="st297" d="M123.54,155.22c.1-.24.19-.23.27.03.19.24.38.48.54.74l.82,1.09.54.82c.37.33.46.61.27.84-.58.17-1.23.11-1.91.05l-.77,2.08c-.64.03-.54-.57-.85-.8-.23-.26-.2-1.03,0-1.36-.18-1.36-.21-2.75-.1-4.17.21-.29.61-.07,1.19.68Z"/>
    <path class="st137" d="M134.14,169.86c-.11,1.55-.2,3.1-.27,4.62.24,8.23.24,17.23,0,25.56-.55-4.54-.27-9.24-.27-13.87-.17-5.46-.24-11.35-.19-16.95,0-.06.09-.12.19-.18.27.3.54.31.54.82Z"/>
    <path class="st4" d="M145.83,199.5c-.02-.08,0-.19,0-.27-.23-6.07-.23-12.46,0-18.49-.23-2.65-.22-5.73,0-8.43-.02-.24-.09-.57.27-.52v24.98c-.01,1.2.28,2.12.58,3.28l-.85-.55Z"/>
    <path class="st10" d="M109.94,192.43c-.17-6.02-.27-12.27,0-18.22-.19-3.85-.22-7.79-.07-11.83l.34.14v29.6c0,.23-.17.34-.27.31Z"/>
    <path class="st312" d="M122.18,199.77c.29,6.89.29,14.51,0,21.48.3.29.44.68,0,.82-.1.03-.27-.09-.27-.31v-27.97c.08-.24.17-.23.27,0,.22,1.84.21,4.09,0,5.98Z"/>
    <path class="st26" d="M110.21,155.99v6.53c-.1-.03-.27.1-.27.29v11.4c-.05.24-.14.23-.27,0v-10.88c-.25-2.84-.17-5.87,0-8.7.35.34.28.99.54,1.36Z"/>
    <path class="st49" d="M134.14,200.31c-.08.24-.17.23-.27,0,0-.09.01-.18,0-.27v-25.56c.08-.24.17-.23.27,0v25.83Z"/>
    <path class="st174" d="M157.8,193.79c-.08.24-.17.23-.27,0-.24-6.32-.23-13.17,0-19.58v-5.97c0-.19.17-.32.27-.28v25.83Z"/>
    <path class="st5" d="M109.94,192.43v6.25c-.14-.32-.26-.63-.27-.95-.13-4.2-.16-8.45,0-12.64-.23-3.41-.23-7.34,0-10.88.09.02.18-.01.27,0v18.22Z"/>
    <path class="st109" d="M158.07,137.23c-.08.24-.17.23-.27,0-.25-.56-.21-1.58,0-2.18-.28-2.74-.22-5.9,0-8.7-.24-4.17-.24-8.76,0-13.05.09-.23.18-.23.27,0v23.93Z"/>
    <path class="st71" d="M156.98,151.37c-.32-.3-.75-.58-.82-1.09l-.82-1.09c-.25-.22-.43-.51-.54-.82-.31-.29-.4-.56-.27-.82.8.4,1.97,1.26,2.67.21.31-.47-.34-1.57.32-1.84.2,1.67.23,3.38.09,5.1,0,.37-.22.48-.64.33Z"/>
    <path class="st338" d="M133.6,169.04v17.13h-.27c-.79-.11-.63-1.15-.39-1.69-.28-.57-.33-1.41.39-1.57-.21-.06-.52-.15-.54-.32-.16-1.4-.13-4.42,0-5.82.34-.96.52-1.99.54-3.11-1.12-.4-.44-2.82,0-3.81,0-1.03-1.01-1.84-.31-1.65.39.07.4.63.58.84Z"/>
    <path class="st277" d="M145.83,199.22c-.1.03-.27-.09-.27-.3v-18.19c.07-.24.17-.23.27,0v18.49Z"/>
    <path class="st45" d="M110.21,65.99c-.1-.03-.27.1-.27.3v14.66c-.08.24-.17.23-.27,0-.23-4.98-.23-10.43,0-15.5v-1.63c.17.66.54,1.45.54,2.18Z"/>
    <path class="st257" d="M122.18,182.91c.23,3.33.23,7.38,0,10.88h-.27v-17.4c.08-.24.17-.23.27,0,.24,1.98.2,4.5,0,6.53Z"/>
    <path class="st287" d="M134.14,217.71c-.08.24-.17.23-.27,0v-17.4h.27v17.4Z"/>
    <path class="st241" d="M98.52,198.95c-.49-5.27-.27-10.69-.27-16.04.1-.03.27.1.27.3v15.75Z"/>
    <path class="st31" d="M122.18,172.03c.23,1.3.26,3.04,0,4.35h-.27v-15.23c.08-.24.17-.23.27,0,.2,3.41.31,7.38,0,10.88Z"/>
    <path class="st165" d="M109.94,198.68v.54c.06.02-.53.06-.53-.08l-.02-14.06c.08-.24.17-.23.27,0,0,4.54.27,9.14.27,13.6Z"/>
    <path class="st139" d="M158.07,150.28c-.08.24-.17.23-.27,0-.18-1.53-.21-3.56,0-5.17-.21-2.47-.26-5.37,0-7.89h.27v13.05Z"/>
    <path class="st53" d="M145.83,127.44c.28,1.77.25,3.72,0,5.44,0,1.19,0,2.37.27,3.53-.32-.19-.54-.6-.54-1.09v-8.97c.51.12.11.79.27,1.09Z"/>
    <path class="st255" d="M157.8,150.28c.24.5.33,1.81-.27,1.9-.46-.01-.35-.63-.54-.82-.24-.28.39-.37.42-.53.3-1.61.13-3.31.13-4.91v-.82c.08-.24.17-.23.27,0v5.17Z"/>
    <rect class="st9" x="145.56" y="172.31" width=".27" height="8.43"/>
    <path class="st103" d="M122.18,158.71c.23.66.22,1.76,0,2.45h-.27v-6.53c.08-.24.17-.23.27,0,.27,1.11.19,2.85,0,4.08Z"/>
    <path class="st150" d="M157.76,198.68c-.31-.14-.23-.53-.23-.82-.24-1.27-.23-2.84,0-4.08h.27c0,1.61.14,3.29-.04,4.89Z"/>
    <path class="st148" d="M129.52,225.87h-3.26c0-.11-.05-.3.01-.39.08-.13.28-.16.51-.16h2.22c.23,0,.43.04.51.16.06.1.02.28.01.39Z"/>
    <path class="st289" d="M134.14,174.48h-.27v-4.09c0-.28.06-.55.27-.53v4.62Z"/>
    <path class="st271" d="M128.97,225.87c-.53.44-1.37.44-1.9,0,.44-.47,1.47-.47,1.9,0Z"/>
    <path class="st110" d="M122.72,142.4c-.79-.27-1.62-.32-2.45-.27,1.14-.53,1.68-.32,2.45.27Z"/>
    <path class="st155" d="M148.28,123.09c.06-.76.78-1.22,1.36-1.63-.07.74-.76,1.24-1.36,1.63Z"/>
    <path class="st114" d="M151.55,143.46v.57c-.56-.37-.97-.97-1.09-1.63.55-.8,1.49.36,1.09,1.06Z"/>
    <path class="st25" d="M105.59,203.58c-.72.09-1.59.53-2.45.27-.02-.22.24-.28.53-.27h1.92Z"/>
    <path class="st115" d="M152.63,203.58c.13.04.25.13.27.27-.61.25-1.55-.18-2.18,0v-.27c.6-.24,1.3-.24,1.9,0Z"/>
    <path class="st215" d="M123.81,155.25c-.08.01-.2-.06-.27-.03-.96-.62-1.23-1.09-.82-1.4.57.29,1.07.77,1.09,1.43Z"/>
    <path class="st200" d="M147.19,124.45c0-.66.58-1.03,1.09-1.36-.05.64-.55,1.06-1.09,1.36Z"/>
    <path class="st193" d="M149.91,121.19c.02-.64.67-.95,1.09-1.36-.02.64-.57,1.05-1.09,1.36Z"/>
    <path class="st208" d="M151.27,119.56c.02-.64.67-.95,1.09-1.36-.02.64-.67.95-1.09,1.36Z"/>
    <path class="st202" d="M152.63,117.93c.02-.64.57-1.05,1.09-1.36-.02.64-.67.95-1.09,1.36Z"/>
    <path class="st327" d="M148.28,139.13c-.08.22-.17.21-.27,0-.22-.35-.97-.46-.82-1.09.48.23.81.64,1.09,1.09Z"/>
    <path class="st305" d="M150.46,203.64c-.6,0-1.26-.1-1.63-.61.6.03,1.26.1,1.63.61Z"/>
    <path class="st15" d="M128.7,161.97c-.46-.19-.82-.58-.82-1.09.55.13.59.71.82,1.09Z"/>
    <path class="st73" d="M148.82,140.22c-.62-.14-.56-.69-.82-1.09h.27c.21.35.53.65.54,1.09Z"/>
    <path class="st132" d="M152.36,145.12c-.46-.18-.78-.59-.82-1.09.46.19.81.58.82,1.09Z"/>
    <path class="st194" d="M154.53,147.56c.18.23.3.52.27.82-.46-.19-.79-.58-.82-1.09l.54.27Z"/>
    <path class="st82" d="M126.53,158.98c-.1-.15-.41-.14-.54-.24-.14-.26-.23-.55-.27-.84.45.2.82.58.82,1.09Z"/>
    <path class="st147" d="M125.17,157.08c-.46-.19-.82-.58-.82-1.09.46.19.8.58.82,1.09Z"/>
    <path class="st69" d="M149.64,141.31c-.45-.22-.8-.58-.82-1.09.47.11.8.64.82,1.09Z"/>
    <path class="st311" d="M150.18,141.58c.8.11.9.28.27.82-.48-.14-.8-.62-.82-1.09l.54.27Z"/>
    <path class="st239" d="M154.26,116.02c-.12-.61.51-.75.82-1.09,0,.51-.36.89-.82,1.09Z"/>
    <path class="st217" d="M131.15,164.97c-.19.02-.37-.04-.55-.14-.24-.12-.14-.52-.27-.68.31.19.73.43.82.82Z"/>
    <path class="st324" d="M130.33,164.15l-.82-.54v-.27c.24.02.52.08.66.28.12.16.13.36.15.54Z"/>
    <path class="st177" d="M109.94,129.35c-.52-1.05-.27-2.36-.27-3.53-.23-3.54-.23-7.36,0-10.88-.23-3.23-.23-7.01,0-10.33-.24-1.31-.23-3.02,0-4.35.08-.24.17-.23.27,0v29.09Z"/>
    <path class="st235" d="M157.52,193.79v4.08c-.1.03-.27-.09-.27-.31v-23.04c0-.22.17-.34.27-.31v19.58Z"/>
    <path class="st282" d="M109.67,80.95c.22,1.56.21,3.52,0,5.17-.1.03-.27-.09-.27-.3v-20.06c0-.21.17-.33.27-.3v15.5Z"/>
    <path class="st58" d="M109.67,100.25v4.35c-.08.24-.17.23-.27,0v-17.38c0-.2.17-.33.27-.3.23,4.26.23,9.01,0,13.32Z"/>
    <rect class="st330" x="109.67" y="86.93" width=".27" height="13.32"/>
    <path class="st278" d="M109.67,154.63v8.7c-.09.03-.28-.1-.28-.29l.08-10.61c.38.77.2,1.53.2,2.2Z"/>
    <path class="st65" d="M109.67,185.09h-.27v-10.6c0-.2.16-.3.27-.28v10.88Z"/>
    <path class="st91" d="M109.67,125.81c-.1.03-.27-.1-.27-.29v-10.59c.08-.24.17-.23.27,0v10.88Z"/>
    <rect class="st216" x="109.4" y="104.6" width=".27" height="10.33"/>
    <rect class="st330" x="109.67" y="80.95" width=".27" height="5.17"/>
    <path class="st123" d="M152.63,203.58h-1.9c.44-.47,1.47-.47,1.9,0Z"/>
    <path class="st309" d="M133.33,187.53v11.96c-.64.45-.06,1.44-.3,2.18-.34,1.06-.68,2.01-.59,3.16-.9.14-1.75.11-2.34.61.06.47.64.3,1.02.25.45-.05.13.56.15.81.03.4-.71-.11-2.45.74-.22.75.61,1.52,1.11,1.98.81,1.07-2.21-1.06-2.09-1-.35-.16-1.3.8-1.46-.17-.07-.46-.61.1-.87.09-.51-.02-.59.59-.69.92-.73.16-1.64-.08-2.27-.35-.34-2.73-.27-6.07-.09-8.93-.23-.57-.22-1.58,0-2.18.66-.24,1.44-.14,2.34.3.53.82.82.48.89-1.03l.59-.83c1.35-.39,2.68-.78,3.98-1.2.35-.74.92-1.34,1.69-1.79.27-1.11.34-2.16.21-3.16l.42-.91c-.62-.94-.34-2.7.76-1.45Z"/>
    <path class="st225" d="M157.43,122.17c.42,1.23.29,2.88.1,4.19.22.5.22,1.13-.03,1.61-.31.43-1.03.81-1.46,1.22-.07,1.94-2.34,1.63-3.2,2.32s-1.75,1.39-2.72,1.67c-1.14.33-2.25,2.49-3.94,1.61-.19-.45-.08-1.32-.07-1.9-.21-.65-.23-1.8.06-2.43.84-.05,1.32-1.25,1.9-1.53,1.29-.26,2.3-.44,3.16-1.5.59-.72,1.58-1.15,1.98-2.16.2-.51.85-.5,1.25-.27.43-.58-.3-1.14-.19-1.66.17-.83,1.35-.86,2.03-.88.48-.02.79-.56,1.13-.28Z"/>
    <path class="st125" d="M157.8,126.35c-.08.24-.17.23-.27,0-.04-1.4.11-2.8-.1-4.19.35-.88-.25-9,.37-8.87v13.05Z"/>
    <path class="st226" d="M146.17,130.45l-.06,2.43h-.27v-5.44c.52.92.36,1.99.34,3.01Z"/>
    <path class="st192" d="M133.33,173.67l-.15.53c.25,1.59-.12,2.7-1.11,3.31.18,1.04-.56,1.7-2.23,1.99-.43,1-1.07,1.63-1.9,1.9-.79,1.16-1.9,2.07-3.33,2.72-.7-.03-1.39-.37-2.06-1.01-.24-.03-.24-.11-.02-.23-.38-2.09-.28-4.41-.04-6.52.56-.19.82.69,1.36.73.34.03.8-.8,1.32-.73,1.51.22,2.11-1.66,3.08-1.96,1.28-.4,2.02-.87,2.42-2.03,2.75-1.05,1.39-1.56,2.67-2.51v3.81Z"/>
    <path class="st93" d="M122.45,160.07v4.35c0,1.8.11,3.6.06,5.39l-.06,2.22c-.08.24-.17.23-.27,0v-13.32c.08-.24.17-.23.27,0v1.36Z"/>
    <path class="st21" d="M122.48,176.35c.02,2.17-.14,4.35.04,6.52-.02.48-.2.52-.35.04v-10.88h.27l.03,4.32Z"/>
    <path class="st133" d="M157.8,135.06c-.08.24-.17.23-.27,0v-2.18c0-.65-.3-1.12-.07-1.95.26-.98,0-2.05.04-2.97.03-.53.05-1.08.03-1.61h.27v8.7Z"/>
    <path class="st290" d="M157.52,142.4c-.44.09-.11.98-.42,1.15-2.12,1.16-1.63,1.63-2.44,1.57-.39-.03-.36-1.14-.64-1.29-.34-.19-.74-.04-1.15-.03-.59.01-.87-.67-1.34-.33-.46-.25-.59-.92-1.09-1.06-.06-.28-.11-.57-.27-.82,1.2-.04,2.44.01,3.7-.25.51-.62.73-1.44,1.41-1.96.89.31,1.71.39,2.2-.26.28.91.24,2.32.03,3.28Z"/>
    <polygon class="st14" points="157.8 137.23 157.8 145.12 157.52 145.12 157.52 142.4 157.49 139.11 157.52 135.06 157.8 135.06 157.8 137.23"/>
    <path class="st17" d="M133.33,182.91v4.62c-.34-.06-.63.12-.78.42.62.31.72,1.2.35,1.6-.53.58.05.88-.03,1.29-.13.72-.46,1.52-.43,2.37-.27.59-1.17.83-1.55,1.4.26.49.75.78.61,1.36-.56.04-.84-.45-1.45-.67-1.11.7-2.35.87-3.49,1.17-1.25,1.44.75,1.77-2.18,2.87-.07-.46.31-.79.12-1.07-.83-.08-1.49-.23-2.06-.67-.23-2.74-.22-5.91,0-8.7.49-.46,1.04-.29,1.65.52.75-.14,1.04-.44.88-.91.24-.57.79-.75,1.63-.56.37-.62.98-1.04,1.82-1.25.77-.93,1.61-1.86,2.73-2.36-.25-1.19,1.78-2.85,2.16-1.43Z"/>
    <path class="st252" d="M122.72,153.82c.01.59.58.89.82,1.4-.41.21-.2-.57-1.02-.52-.14,1.47-.07,2.73-.07,4.01h-.27v-4.08c0-.32-.03-.61.04-1.11.22.15.35.22.5.3Z"/>
    <path class="st238" d="M122.55,183.1c.69,1.56.74,4.3-.1,5.79v10.88h-.27v-16.86l.35-.04c0,.08.03.16.02.23Z"/>
    <path class="st298" d="M133.33,182.91c-.43-.39-1.59.55-1.63.96-.05.53.38.17.89.66-1.63.14-2.67,1.26-3.71,2.49-.4.48-1.42.34-1.78,1.13-.28.61-1.11.33-1.6.12.2,2.04-.62.63-1.71,2.24-.19-.96-.62-1.4-1.35-1.62,0-1.93-.09-3.87.1-5.79.23-.25.63-.28.8-.14l.89.75c.94-.45,1.96-1.24,2.85-1.9.3-.22.3-.83.68-.9,1.01-.19,1.12-1.08,1.58-1.7.55-.53,1.62-.61,2.31-.85-.7-2.21,1.49-.77,1.38-3.43-.02-.44-.09-1.07.3-1.26v9.24Z"/>
    <g>
      <path class="st331" d="M133.17,223.13c-.1.34-.59.8-.93,1.11l-1.3.54c-.62.12-6.28.01-6.59-.2-.1-.07-.15-.21-.18-.36-.91-.58-1.89-1.89-1.7-2.96-.21-3.93-.27-8.56.07-12.55.5-.29,1.12-.33,1.84-.14.3-.94,1.32-1.23,2.18-1.05.3.28.85.39,1.64.33-.04-1.17.92-1.4,1.88-1.61-1.1-1.3.46-1.81,1.73-1.87l.72-2.94c-.26-1.51,0-2.15.79-1.93l.24.05c-.04,6.84,0,13.69.15,20.54-.14.05-.25.11-.25.17-.05,1.04-.14,1.94-.3,2.88Z"/>
      <g>
        <path class="st101" d="M133.87,200.04c.18.09.18.18,0,.27.24,5.6.23,11.74,0,17.4.06.71.15,1.44.27,2.18.04.49-.12.68-.27,1.09-.18-.13-.24.23-.2,1.09-.15.27-.42.79-.5,1.06-.33,0-.27-.25-.31-.39-.09-.29.42-.64.42-.91l.05-22.32c-.13.01-.25.02-.36-.02-.5-.17,0-9.28.25-10.47-.28-.81-.25-1.3.11-1.48-.81-.02-.75-1.21,0-1.36.08-.24.17-.23.27,0,.07,4.61.16,9.24.27,13.87Z"/>
        <path class="st190" d="M132.24,224.24c-.78.73-1.59,1.63-2.72,1.63-.81-.7-2.7-.48-3.26,0-.7,0-1.25-.6-1.9-.82-.34-.35-.4-.63-.18-.84l8.07.03Z"/>
        <path class="st211" d="M124.17,224.21c-.1.23-.31.24-.64.03-.76-.46-1.2-1.29-1.36-2.18-.05-.25,0-.56,0-.82.08-.24.18-.23.29,0,.91,1.88.78.79,1.7,2.96Z"/>
        <path class="st266" d="M134.14,219.89c-.5-.53-.27-1.45-.27-2.18h.27c0,.72-.05,1.46,0,2.18Z"/>
        <path class="st220" d="M133.87,220.98c-.13.35,0,.72-.2,1.09-.06-.59-.17-1.17,0-1.93.37.2.16.57.2.84Z"/>
        <path class="st154" d="M124.17,224.21c.11.27.17.55.18.84-.42-.14-.54-.58-.82-.82-.05-.17.08-.21.15-.19l.49.17Z"/>
        <path class="st265" d="M122.54,208.7l-.07,12.55h-.29v-21.48c.08-.24.17-.23.27,0l.09,8.93Z"/>
        <path class="st309" d="M131.31,209.01c-.26-.24-.46-.46-.98-.66.47-.5,1.07-1.03,1.94-.88-.53.35-1.01.43-.96,1.54Z"/>
      </g>
    </g>
  </g>
</svg>